<svg width="276" height="60" viewBox="0 0 276 60" fill="none" xmlns="http://www.w3.org/2000/svg">
<g filter="url(#filter0_i_1_4166)">
<rect width="276" height="60" rx="30" fill="#F38120"/>
</g>
<path d="M78.6495 22.35C79.0695 22.4833 79.3961 22.7 79.6295 23C79.8695 23.2933 79.9895 23.64 79.9895 24.04C79.9895 24.46 79.8528 24.8267 79.5795 25.14C79.3061 25.4467 78.9395 25.6833 78.4795 25.85C78.0261 26.0167 77.5295 26.1 76.9895 26.1C76.5228 26.1 76.0528 26.0367 75.5795 25.91C75.1128 25.7767 74.6795 25.58 74.2795 25.32L74.6995 24.37C75.0061 24.5767 75.3461 24.7367 75.7195 24.85C76.0928 24.9567 76.4628 25.01 76.8295 25.01C77.3561 25.01 77.7928 24.9067 78.1395 24.7C78.4928 24.4933 78.6695 24.21 78.6695 23.85C78.6695 23.5433 78.5428 23.31 78.2895 23.15C78.0361 22.99 77.6861 22.91 77.2395 22.91H75.6095V21.89H77.1395C77.5261 21.89 77.8295 21.81 78.0495 21.65C78.2695 21.49 78.3795 21.2733 78.3795 21C78.3795 20.6733 78.2295 20.42 77.9295 20.24C77.6361 20.06 77.2595 19.97 76.7995 19.97C76.4861 19.97 76.1628 20.0167 75.8295 20.11C75.4961 20.1967 75.1828 20.3267 74.8895 20.5L74.4795 19.45C74.8395 19.2567 75.2195 19.1133 75.6195 19.02C76.0261 18.92 76.4295 18.87 76.8295 18.87C77.3495 18.87 77.8261 18.95 78.2595 19.11C78.6995 19.27 79.0495 19.5 79.3095 19.8C79.5695 20.0933 79.6995 20.44 79.6995 20.84C79.6995 21.1867 79.6061 21.49 79.4195 21.75C79.2328 22.01 78.9761 22.21 78.6495 22.35ZM86.3036 24.38H82.8036L82.1136 26H80.7736L83.9236 19H85.2036L88.3636 26H87.0036L86.3036 24.38ZM85.8736 23.36L84.5536 20.3L83.2436 23.36H85.8736ZM95.837 19V26H94.557V20.1H90.927V26H89.647V19H95.837ZM98.0209 19H99.3009V23.97L103.061 19H104.271V26H102.991V21.04L99.2309 26H98.0209V19ZM109.654 26.1C108.947 26.1 108.307 25.9467 107.734 25.64C107.167 25.3267 106.72 24.8967 106.394 24.35C106.074 23.8033 105.914 23.1867 105.914 22.5C105.914 21.8133 106.077 21.1967 106.404 20.65C106.73 20.1033 107.177 19.6767 107.744 19.37C108.317 19.0567 108.957 18.9 109.664 18.9C110.237 18.9 110.76 19 111.234 19.2C111.707 19.4 112.107 19.69 112.434 20.07L111.594 20.86C111.087 20.3133 110.464 20.04 109.724 20.04C109.244 20.04 108.814 20.1467 108.434 20.36C108.054 20.5667 107.757 20.8567 107.544 21.23C107.33 21.6033 107.224 22.0267 107.224 22.5C107.224 22.9733 107.33 23.3967 107.544 23.77C107.757 24.1433 108.054 24.4367 108.434 24.65C108.814 24.8567 109.244 24.96 109.724 24.96C110.464 24.96 111.087 24.6833 111.594 24.13L112.434 24.93C112.107 25.31 111.704 25.6 111.224 25.8C110.75 26 110.227 26.1 109.654 26.1ZM118.334 24.38H114.834L114.144 26H112.804L115.954 19H117.234L120.394 26H119.034L118.334 24.38ZM117.904 23.36L116.584 20.3L115.274 23.36H117.904ZM126.396 20.1H124.076V26H122.786V20.1H120.476V19H126.396V20.1ZM130.947 21.37C131.787 21.37 132.43 21.56 132.877 21.94C133.33 22.3133 133.557 22.87 133.557 23.61C133.557 24.3833 133.31 24.9767 132.817 25.39C132.324 25.7967 131.63 26 130.737 26H127.727V19H129.007V21.37H130.947ZM130.677 25C131.184 25 131.574 24.8833 131.847 24.65C132.12 24.4167 132.257 24.0767 132.257 23.63C132.257 22.7833 131.73 22.36 130.677 22.36H129.007V25H130.677ZM138.305 26.1C137.598 26.1 136.958 25.9467 136.385 25.64C135.818 25.3267 135.372 24.8967 135.045 24.35C134.725 23.8033 134.565 23.1867 134.565 22.5C134.565 21.8133 134.728 21.1967 135.055 20.65C135.382 20.1033 135.828 19.6767 136.395 19.37C136.968 19.0567 137.608 18.9 138.315 18.9C138.888 18.9 139.412 19 139.885 19.2C140.358 19.4 140.758 19.69 141.085 20.07L140.245 20.86C139.738 20.3133 139.115 20.04 138.375 20.04C137.895 20.04 137.465 20.1467 137.085 20.36C136.705 20.5667 136.408 20.8567 136.195 21.23C135.982 21.6033 135.875 22.0267 135.875 22.5C135.875 22.9733 135.982 23.3967 136.195 23.77C136.408 24.1433 136.705 24.4367 137.085 24.65C137.465 24.8567 137.895 24.96 138.375 24.96C139.115 24.96 139.738 24.6833 140.245 24.13L141.085 24.93C140.758 25.31 140.355 25.6 139.875 25.8C139.402 26 138.878 26.1 138.305 26.1ZM147.696 19V26H146.416V24.05H144.686H144.546L143.246 26H141.876L143.376 23.84C142.889 23.66 142.512 23.3767 142.246 22.99C141.986 22.5967 141.856 22.1233 141.856 21.57C141.856 21.0367 141.976 20.5767 142.216 20.19C142.456 19.8033 142.796 19.51 143.236 19.31C143.676 19.1033 144.192 19 144.786 19H147.696ZM144.826 20.1C144.292 20.1 143.882 20.2233 143.596 20.47C143.316 20.7167 143.176 21.0767 143.176 21.55C143.176 22.01 143.312 22.3667 143.586 22.62C143.859 22.8667 144.256 22.99 144.776 22.99H146.416V20.1H144.826ZM159.054 19V26H157.754V23H154.134V26H152.834V19H154.134V21.89H157.754V19H159.054ZM165.857 24.38H162.357L161.667 26H160.327L163.477 19H164.757L167.917 26H166.557L165.857 24.38ZM165.427 23.36L164.107 20.3L162.797 23.36H165.427ZM64.2997 35V42H63.0197V36.1H59.3897V42H58.1097V35H64.2997ZM69.3536 35C69.9602 35 70.4869 35.1 70.9336 35.3C71.3869 35.5 71.7336 35.7867 71.9736 36.16C72.2136 36.5333 72.3336 36.9767 72.3336 37.49C72.3336 37.9967 72.2136 38.44 71.9736 38.82C71.7336 39.1933 71.3869 39.48 70.9336 39.68C70.4869 39.88 69.9602 39.98 69.3536 39.98H67.7736V42H66.4736V35H69.3536ZM69.2936 38.88C69.8602 38.88 70.2902 38.76 70.5836 38.52C70.8769 38.28 71.0236 37.9367 71.0236 37.49C71.0236 37.0433 70.8769 36.7 70.5836 36.46C70.2902 36.22 69.8602 36.1 69.2936 36.1H67.7736V38.88H69.2936ZM77.1011 42.1C76.3877 42.1 75.7444 41.9467 75.1711 41.64C74.5977 41.3267 74.1477 40.8967 73.8211 40.35C73.4944 39.7967 73.3311 39.18 73.3311 38.5C73.3311 37.82 73.4944 37.2067 73.8211 36.66C74.1477 36.1067 74.5977 35.6767 75.1711 35.37C75.7444 35.0567 76.3877 34.9 77.1011 34.9C77.8144 34.9 78.4577 35.0567 79.0311 35.37C79.6044 35.6767 80.0544 36.1033 80.3811 36.65C80.7077 37.1967 80.8711 37.8133 80.8711 38.5C80.8711 39.1867 80.7077 39.8033 80.3811 40.35C80.0544 40.8967 79.6044 41.3267 79.0311 41.64C78.4577 41.9467 77.8144 42.1 77.1011 42.1ZM77.1011 40.96C77.5677 40.96 77.9877 40.8567 78.3611 40.65C78.7344 40.4367 79.0277 40.1433 79.2411 39.77C79.4544 39.39 79.5611 38.9667 79.5611 38.5C79.5611 38.0333 79.4544 37.6133 79.2411 37.24C79.0277 36.86 78.7344 36.5667 78.3611 36.36C77.9877 36.1467 77.5677 36.04 77.1011 36.04C76.6344 36.04 76.2144 36.1467 75.8411 36.36C75.4677 36.5667 75.1744 36.86 74.9611 37.24C74.7477 37.6133 74.6411 38.0333 74.6411 38.5C74.6411 38.9667 74.7477 39.39 74.9611 39.77C75.1744 40.1433 75.4677 40.4367 75.8411 40.65C76.2144 40.8567 76.6344 40.96 77.1011 40.96ZM85.7283 42.1C85.0217 42.1 84.3817 41.9467 83.8083 41.64C83.2417 41.3267 82.795 40.8967 82.4683 40.35C82.1483 39.8033 81.9883 39.1867 81.9883 38.5C81.9883 37.8133 82.1517 37.1967 82.4783 36.65C82.805 36.1033 83.2517 35.6767 83.8183 35.37C84.3917 35.0567 85.0317 34.9 85.7383 34.9C86.3117 34.9 86.835 35 87.3083 35.2C87.7817 35.4 88.1817 35.69 88.5083 36.07L87.6683 36.86C87.1617 36.3133 86.5383 36.04 85.7983 36.04C85.3183 36.04 84.8883 36.1467 84.5083 36.36C84.1283 36.5667 83.8317 36.8567 83.6183 37.23C83.405 37.6033 83.2983 38.0267 83.2983 38.5C83.2983 38.9733 83.405 39.3967 83.6183 39.77C83.8317 40.1433 84.1283 40.4367 84.5083 40.65C84.8883 40.8567 85.3183 40.96 85.7983 40.96C86.5383 40.96 87.1617 40.6833 87.6683 40.13L88.5083 40.93C88.1817 41.31 87.7783 41.6 87.2983 41.8C86.825 42 86.3017 42.1 85.7283 42.1ZM96.3454 42L96.3354 37.36L94.0354 41.2H93.4554L91.1554 37.42V42H89.9254V35H90.9954L93.7654 39.63L96.5054 35H97.5654L97.5854 42H96.3454ZM102.984 42.1C102.271 42.1 101.628 41.9467 101.054 41.64C100.481 41.3267 100.031 40.8967 99.7043 40.35C99.3776 39.7967 99.2143 39.18 99.2143 38.5C99.2143 37.82 99.3776 37.2067 99.7043 36.66C100.031 36.1067 100.481 35.6767 101.054 35.37C101.628 35.0567 102.271 34.9 102.984 34.9C103.698 34.9 104.341 35.0567 104.914 35.37C105.488 35.6767 105.938 36.1033 106.264 36.65C106.591 37.1967 106.754 37.8133 106.754 38.5C106.754 39.1867 106.591 39.8033 106.264 40.35C105.938 40.8967 105.488 41.3267 104.914 41.64C104.341 41.9467 103.698 42.1 102.984 42.1ZM102.984 40.96C103.451 40.96 103.871 40.8567 104.244 40.65C104.618 40.4367 104.911 40.1433 105.124 39.77C105.338 39.39 105.444 38.9667 105.444 38.5C105.444 38.0333 105.338 37.6133 105.124 37.24C104.911 36.86 104.618 36.5667 104.244 36.36C103.871 36.1467 103.451 36.04 102.984 36.04C102.518 36.04 102.098 36.1467 101.724 36.36C101.351 36.5667 101.058 36.86 100.844 37.24C100.631 37.6133 100.524 38.0333 100.524 38.5C100.524 38.9667 100.631 39.39 100.844 39.77C101.058 40.1433 101.351 40.4367 101.724 40.65C102.098 40.8567 102.518 40.96 102.984 40.96ZM113.374 36.1H111.054V42H109.764V36.1H107.454V35H113.374V36.1ZM117.575 35C118.182 35 118.708 35.1 119.155 35.3C119.608 35.5 119.955 35.7867 120.195 36.16C120.435 36.5333 120.555 36.9767 120.555 37.49C120.555 37.9967 120.435 38.44 120.195 38.82C119.955 39.1933 119.608 39.48 119.155 39.68C118.708 39.88 118.182 39.98 117.575 39.98H115.995V42H114.695V35H117.575ZM117.515 38.88C118.082 38.88 118.512 38.76 118.805 38.52C119.098 38.28 119.245 37.9367 119.245 37.49C119.245 37.0433 119.098 36.7 118.805 36.46C118.512 36.22 118.082 36.1 117.515 36.1H115.995V38.88H117.515ZM128.286 42.1C127.573 42.1 126.93 41.9467 126.356 41.64C125.783 41.3267 125.333 40.8967 125.006 40.35C124.68 39.7967 124.516 39.18 124.516 38.5C124.516 37.82 124.68 37.2067 125.006 36.66C125.333 36.1067 125.783 35.6767 126.356 35.37C126.93 35.0567 127.573 34.9 128.286 34.9C129 34.9 129.643 35.0567 130.216 35.37C130.79 35.6767 131.24 36.1033 131.566 36.65C131.893 37.1967 132.056 37.8133 132.056 38.5C132.056 39.1867 131.893 39.8033 131.566 40.35C131.24 40.8967 130.79 41.3267 130.216 41.64C129.643 41.9467 129 42.1 128.286 42.1ZM128.286 40.96C128.753 40.96 129.173 40.8567 129.546 40.65C129.92 40.4367 130.213 40.1433 130.426 39.77C130.64 39.39 130.746 38.9667 130.746 38.5C130.746 38.0333 130.64 37.6133 130.426 37.24C130.213 36.86 129.92 36.5667 129.546 36.36C129.173 36.1467 128.753 36.04 128.286 36.04C127.82 36.04 127.4 36.1467 127.026 36.36C126.653 36.5667 126.36 36.86 126.146 37.24C125.933 37.6133 125.826 38.0333 125.826 38.5C125.826 38.9667 125.933 39.39 126.146 39.77C126.36 40.1433 126.653 40.4367 127.026 40.65C127.4 40.8567 127.82 40.96 128.286 40.96ZM133.703 35H139.153V36.07H134.983V37.79H137.053C137.893 37.79 138.53 37.9667 138.963 38.32C139.403 38.6667 139.623 39.17 139.623 39.83C139.623 40.5233 139.383 41.06 138.903 41.44C138.423 41.8133 137.74 42 136.853 42H133.703V35ZM136.783 41C137.283 41 137.663 40.9033 137.923 40.71C138.183 40.5167 138.313 40.2367 138.313 39.87C138.313 39.15 137.803 38.79 136.783 38.79H134.983V41H136.783ZM145.306 37.37C146.146 37.37 146.789 37.56 147.236 37.94C147.689 38.3133 147.916 38.87 147.916 39.61C147.916 40.39 147.669 40.9833 147.176 41.39C146.689 41.7967 145.993 42 145.086 42H142.086V36.1H140.036V35H143.366V37.37H145.306ZM145.036 41C145.543 41 145.929 40.8833 146.196 40.65C146.469 40.4167 146.606 40.0767 146.606 39.63C146.606 38.7833 146.083 38.36 145.036 38.36H143.366V41H145.036ZM154.685 40.91V42H149.435V35H154.545V36.09H150.735V37.91H154.115V38.98H150.735V40.91H154.685ZM158.914 39.05H157.614V42H156.334V35H157.614V37.93H158.954L160.964 35H162.344L159.954 38.39L162.434 42H160.964L158.914 39.05ZM168.529 36.1H166.209V42H164.919V36.1H162.609V35H168.529V36.1ZM172.992 42.1C172.279 42.1 171.635 41.9467 171.062 41.64C170.489 41.3267 170.039 40.8967 169.712 40.35C169.385 39.7967 169.222 39.18 169.222 38.5C169.222 37.82 169.385 37.2067 169.712 36.66C170.039 36.1067 170.489 35.6767 171.062 35.37C171.635 35.0567 172.279 34.9 172.992 34.9C173.705 34.9 174.349 35.0567 174.922 35.37C175.495 35.6767 175.945 36.1033 176.272 36.65C176.599 37.1967 176.762 37.8133 176.762 38.5C176.762 39.1867 176.599 39.8033 176.272 40.35C175.945 40.8967 175.495 41.3267 174.922 41.64C174.349 41.9467 173.705 42.1 172.992 42.1ZM172.992 40.96C173.459 40.96 173.879 40.8567 174.252 40.65C174.625 40.4367 174.919 40.1433 175.132 39.77C175.345 39.39 175.452 38.9667 175.452 38.5C175.452 38.0333 175.345 37.6133 175.132 37.24C174.919 36.86 174.625 36.5667 174.252 36.36C173.879 36.1467 173.459 36.04 172.992 36.04C172.525 36.04 172.105 36.1467 171.732 36.36C171.359 36.5667 171.065 36.86 170.852 37.24C170.639 37.6133 170.532 38.0333 170.532 38.5C170.532 38.9667 170.639 39.39 170.852 39.77C171.065 40.1433 171.359 40.4367 171.732 40.65C172.105 40.8567 172.525 40.96 172.992 40.96ZM183.009 38.36C183.456 38.48 183.796 38.6867 184.029 38.98C184.263 39.2667 184.379 39.6267 184.379 40.06C184.379 40.6733 184.153 41.15 183.699 41.49C183.246 41.83 182.589 42 181.729 42H178.409V35H181.539C182.326 35 182.939 35.1567 183.379 35.47C183.819 35.7833 184.039 36.2267 184.039 36.8C184.039 37.1667 183.949 37.4833 183.769 37.75C183.596 38.0167 183.343 38.22 183.009 38.36ZM179.689 37.99H181.429C181.849 37.99 182.169 37.9067 182.389 37.74C182.609 37.5733 182.719 37.3267 182.719 37C182.719 36.6733 182.609 36.4267 182.389 36.26C182.169 36.0867 181.849 36 181.429 36H179.689V37.99ZM181.689 41C182.609 41 183.069 40.6533 183.069 39.96C183.069 39.28 182.609 38.94 181.689 38.94H179.689V41H181.689Z" fill="white"/>
<path d="M222.242 23.2746L209 36.5166L210.439 37.9559L223.681 24.714L222.242 23.2746Z" fill="white"/>
<path d="M224 30.0838H221.965V25.0356H216.917V23H224V30.0838Z" fill="white"/>
<defs>
<filter id="filter0_i_1_4166" x="0" y="0" width="276" height="60" filterUnits="userSpaceOnUse" color-interpolation-filters="sRGB">
<feFlood flood-opacity="0" result="BackgroundImageFix"/>
<feBlend mode="normal" in="SourceGraphic" in2="BackgroundImageFix" result="shape"/>
<feColorMatrix in="SourceAlpha" type="matrix" values="0 0 0 0 0 0 0 0 0 0 0 0 0 0 0 0 0 0 127 0" result="hardAlpha"/>
<feOffset/>
<feGaussianBlur stdDeviation="11"/>
<feComposite in2="hardAlpha" operator="arithmetic" k2="-1" k3="1"/>
<feColorMatrix type="matrix" values="0 0 0 0 1 0 0 0 0 1 0 0 0 0 1 0 0 0 0.25 0"/>
<feBlend mode="normal" in2="shape" result="effect1_innerShadow_1_4166"/>
</filter>
</defs>
</svg>
