<svg width="356" height="85" viewBox="0 0 356 85" fill="none" xmlns="http://www.w3.org/2000/svg">
<g filter="url(#filter0_i_1_5941)">
<rect width="356" height="85" rx="42.5" fill="#F38120"/>
</g>
<path d="M88.584 48V36.8H98.488V48H96.44V38.048L96.92 38.56H90.152L90.632 38.048V48H88.584ZM105.55 48.112C104.675 48.112 103.897 47.9253 103.214 47.552C102.531 47.168 101.993 46.6453 101.598 45.984C101.203 45.3227 101.006 44.5707 101.006 43.728C101.006 42.8747 101.203 42.1227 101.598 41.472C101.993 40.8107 102.531 40.2933 103.214 39.92C103.897 39.5467 104.675 39.36 105.55 39.36C106.435 39.36 107.219 39.5467 107.902 39.92C108.595 40.2933 109.134 40.8053 109.518 41.456C109.913 42.1067 110.11 42.864 110.11 43.728C110.11 44.5707 109.913 45.3227 109.518 45.984C109.134 46.6453 108.595 47.168 107.902 47.552C107.219 47.9253 106.435 48.112 105.55 48.112ZM105.55 46.4C106.041 46.4 106.478 46.2933 106.862 46.08C107.246 45.8667 107.545 45.5573 107.758 45.152C107.982 44.7467 108.094 44.272 108.094 43.728C108.094 43.1733 107.982 42.6987 107.758 42.304C107.545 41.8987 107.246 41.5893 106.862 41.376C106.478 41.1627 106.046 41.056 105.566 41.056C105.075 41.056 104.638 41.1627 104.254 41.376C103.881 41.5893 103.582 41.8987 103.358 42.304C103.134 42.6987 103.022 43.1733 103.022 43.728C103.022 44.272 103.134 44.7467 103.358 45.152C103.582 45.5573 103.881 45.8667 104.254 46.08C104.638 46.2933 105.07 46.4 105.55 46.4ZM114.985 48.144C115.774 48.144 116.473 48.032 117.081 47.808C117.7 47.584 118.185 47.2747 118.537 46.88C118.889 46.4747 119.065 46.0107 119.065 45.488C119.065 44.8373 118.793 44.3253 118.249 43.952C117.705 43.568 116.958 43.376 116.009 43.376L115.945 43.808C116.5 43.808 116.99 43.7173 117.417 43.536C117.854 43.3547 118.196 43.104 118.441 42.784C118.697 42.4533 118.825 42.0853 118.825 41.68C118.825 41.1893 118.649 40.7627 118.297 40.4C117.945 40.0373 117.465 39.76 116.857 39.568C116.249 39.376 115.556 39.296 114.777 39.328C114.265 39.3387 113.748 39.4133 113.225 39.552C112.713 39.68 112.185 39.8667 111.641 40.112L112.153 41.584C112.622 41.3813 113.081 41.2267 113.529 41.12C113.988 41.0133 114.43 40.96 114.857 40.96C115.262 40.96 115.609 41.0027 115.897 41.088C116.185 41.1627 116.404 41.28 116.553 41.44C116.713 41.5893 116.793 41.7653 116.793 41.968C116.793 42.1707 116.729 42.3467 116.601 42.496C116.473 42.6453 116.286 42.7573 116.041 42.832C115.806 42.9067 115.518 42.944 115.177 42.944H113.689V44.288H115.337C115.881 44.288 116.297 44.3787 116.585 44.56C116.884 44.7307 117.033 44.9867 117.033 45.328C117.033 45.5627 116.942 45.7707 116.761 45.952C116.59 46.1333 116.345 46.272 116.025 46.368C115.705 46.4533 115.321 46.496 114.873 46.496C114.35 46.496 113.828 46.432 113.305 46.304C112.782 46.176 112.313 45.9947 111.897 45.76L111.337 47.248C111.849 47.536 112.42 47.76 113.049 47.92C113.689 48.0693 114.334 48.144 114.985 48.144ZM121.445 48V39.456H125.621C126.655 39.456 127.466 39.648 128.053 40.032C128.65 40.416 128.949 40.96 128.949 41.664C128.949 42.3573 128.671 42.9013 128.117 43.296C127.562 43.68 126.826 43.872 125.909 43.872L126.149 43.376C127.183 43.376 127.951 43.568 128.453 43.952C128.965 44.3253 129.221 44.8747 129.221 45.6C129.221 46.3573 128.938 46.9493 128.373 47.376C127.807 47.792 126.949 48 125.797 48H121.445ZM123.349 46.544H125.637C126.181 46.544 126.591 46.4587 126.869 46.288C127.146 46.1067 127.285 45.8347 127.285 45.472C127.285 45.088 127.157 44.8053 126.901 44.624C126.645 44.4427 126.245 44.352 125.701 44.352H123.349V46.544ZM123.349 43.024H125.445C125.957 43.024 126.341 42.9333 126.597 42.752C126.863 42.56 126.997 42.2933 126.997 41.952C126.997 41.6 126.863 41.3387 126.597 41.168C126.341 40.9973 125.957 40.912 125.445 40.912H123.349V43.024ZM135.479 48.112C134.604 48.112 133.826 47.9253 133.143 47.552C132.46 47.168 131.922 46.6453 131.527 45.984C131.132 45.3227 130.935 44.5707 130.935 43.728C130.935 42.8747 131.132 42.1227 131.527 41.472C131.922 40.8107 132.46 40.2933 133.143 39.92C133.826 39.5467 134.604 39.36 135.479 39.36C136.364 39.36 137.148 39.5467 137.831 39.92C138.524 40.2933 139.063 40.8053 139.447 41.456C139.842 42.1067 140.039 42.864 140.039 43.728C140.039 44.5707 139.842 45.3227 139.447 45.984C139.063 46.6453 138.524 47.168 137.831 47.552C137.148 47.9253 136.364 48.112 135.479 48.112ZM135.479 46.4C135.97 46.4 136.407 46.2933 136.791 46.08C137.175 45.8667 137.474 45.5573 137.687 45.152C137.911 44.7467 138.023 44.272 138.023 43.728C138.023 43.1733 137.911 42.6987 137.687 42.304C137.474 41.8987 137.175 41.5893 136.791 41.376C136.407 41.1627 135.975 41.056 135.495 41.056C135.004 41.056 134.567 41.1627 134.183 41.376C133.81 41.5893 133.511 41.8987 133.287 42.304C133.063 42.6987 132.951 43.1733 132.951 43.728C132.951 44.272 133.063 44.7467 133.287 45.152C133.511 45.5573 133.81 45.8667 134.183 46.08C134.567 46.2933 134.999 46.4 135.479 46.4ZM142.335 48V39.456H144.335V42.928H148.639V39.456H150.639V48H148.639V44.624H144.335V48H142.335ZM153.639 48V39.456H155.639V45.088L160.359 39.456H162.183V48H160.183V42.368L155.479 48H153.639ZM166.969 48V40.672L167.433 41.152H163.961V39.456H171.961V41.152H168.505L168.969 40.672V48H166.969ZM177.341 48.112C176.392 48.112 175.56 47.9253 174.845 47.552C174.141 47.168 173.592 46.6453 173.197 45.984C172.813 45.3227 172.621 44.5707 172.621 43.728C172.621 42.8747 172.808 42.1227 173.181 41.472C173.565 40.8107 174.088 40.2933 174.749 39.92C175.421 39.5467 176.184 39.36 177.037 39.36C177.869 39.36 178.61 39.5413 179.261 39.904C179.912 40.2667 180.424 40.7787 180.797 41.44C181.17 42.1013 181.357 42.88 181.357 43.776C181.357 43.8613 181.352 43.9573 181.341 44.064C181.341 44.1707 181.336 44.272 181.325 44.368H174.205V43.04H180.269L179.485 43.456C179.496 42.9653 179.394 42.5333 179.181 42.16C178.968 41.7867 178.674 41.4933 178.301 41.28C177.938 41.0667 177.517 40.96 177.037 40.96C176.546 40.96 176.114 41.0667 175.741 41.28C175.378 41.4933 175.09 41.792 174.877 42.176C174.674 42.5493 174.573 42.992 174.573 43.504V43.824C174.573 44.336 174.69 44.7893 174.925 45.184C175.16 45.5787 175.49 45.8827 175.917 46.096C176.344 46.3093 176.834 46.416 177.389 46.416C177.869 46.416 178.301 46.3413 178.685 46.192C179.069 46.0427 179.41 45.808 179.709 45.488L180.781 46.72C180.397 47.168 179.912 47.5147 179.325 47.76C178.749 47.9947 178.088 48.112 177.341 48.112ZM188.606 48V39.456H190.702L194.142 45.52H193.31L196.926 39.456H198.798L198.814 48H197.006V41.6L197.326 41.808L194.126 47.104H193.262L190.046 41.664L190.43 41.568V48H188.606ZM201.817 48V39.456H203.817V42.928H208.121V39.456H210.121V48H208.121V44.624H203.817V48H201.817ZM217.105 48.112C216.156 48.112 215.324 47.9253 214.609 47.552C213.905 47.168 213.356 46.6453 212.961 45.984C212.577 45.3227 212.385 44.5707 212.385 43.728C212.385 42.8747 212.572 42.1227 212.945 41.472C213.329 40.8107 213.852 40.2933 214.513 39.92C215.185 39.5467 215.948 39.36 216.801 39.36C217.633 39.36 218.375 39.5413 219.025 39.904C219.676 40.2667 220.188 40.7787 220.561 41.44C220.935 42.1013 221.121 42.88 221.121 43.776C221.121 43.8613 221.116 43.9573 221.105 44.064C221.105 44.1707 221.1 44.272 221.089 44.368H213.969V43.04H220.033L219.249 43.456C219.26 42.9653 219.159 42.5333 218.945 42.16C218.732 41.7867 218.439 41.4933 218.065 41.28C217.703 41.0667 217.281 40.96 216.801 40.96C216.311 40.96 215.879 41.0667 215.505 41.28C215.143 41.4933 214.855 41.792 214.641 42.176C214.439 42.5493 214.337 42.992 214.337 43.504V43.824C214.337 44.336 214.455 44.7893 214.689 45.184C214.924 45.5787 215.255 45.8827 215.681 46.096C216.108 46.3093 216.599 46.416 217.153 46.416C217.633 46.416 218.065 46.3413 218.449 46.192C218.833 46.0427 219.175 45.808 219.473 45.488L220.545 46.72C220.161 47.168 219.676 47.5147 219.089 47.76C218.513 47.9947 217.852 48.112 217.105 48.112Z" fill="white"/>
<path d="M266.358 40.7588L241.358 40.7588L241.358 43.4762L266.358 43.4762L266.358 40.7588Z" fill="white"/>
<path d="M261.59 48.8462L259.668 46.9247L264.434 42.1594L259.668 37.3941L261.59 35.4727L268.277 42.1594L261.59 48.8462Z" fill="white"/>
<defs>
<filter id="filter0_i_1_5941" x="0" y="0" width="356" height="85" filterUnits="userSpaceOnUse" color-interpolation-filters="sRGB">
<feFlood flood-opacity="0" result="BackgroundImageFix"/>
<feBlend mode="normal" in="SourceGraphic" in2="BackgroundImageFix" result="shape"/>
<feColorMatrix in="SourceAlpha" type="matrix" values="0 0 0 0 0 0 0 0 0 0 0 0 0 0 0 0 0 0 127 0" result="hardAlpha"/>
<feOffset/>
<feGaussianBlur stdDeviation="8.5"/>
<feComposite in2="hardAlpha" operator="arithmetic" k2="-1" k3="1"/>
<feColorMatrix type="matrix" values="0 0 0 0 1 0 0 0 0 1 0 0 0 0 1 0 0 0 0.25 0"/>
<feBlend mode="normal" in2="shape" result="effect1_innerShadow_1_5941"/>
</filter>
</defs>
</svg>
