<svg width="375" height="97" viewBox="0 0 375 97" fill="none" xmlns="http://www.w3.org/2000/svg">
<g filter="url(#filter0_i_1_3350)">
<rect width="375" height="97" rx="48.5" fill="#21E27C"/>
</g>
<path d="M61.7149 42.1904V32.3904H65.7469C66.6149 32.3904 67.3569 32.5304 67.9729 32.8104C68.5983 33.0904 69.0789 33.4918 69.4149 34.0144C69.7509 34.5371 69.9189 35.1578 69.9189 35.8764C69.9189 36.5951 69.7509 37.2158 69.4149 37.7384C69.0789 38.2611 68.5983 38.6624 67.9729 38.9424C67.3569 39.2224 66.6149 39.3624 65.7469 39.3624H62.7229L63.5349 38.5084V42.1904H61.7149ZM63.5349 38.7044L62.7229 37.8224H65.6629C66.4656 37.8224 67.0676 37.6544 67.4689 37.3184C67.8796 36.9731 68.0849 36.4924 68.0849 35.8764C68.0849 35.2511 67.8796 34.7704 67.4689 34.4344C67.0676 34.0984 66.4656 33.9304 65.6629 33.9304H62.7229L63.5349 33.0344V38.7044ZM70.1825 42.1904L74.5925 32.3904H76.3845L80.8085 42.1904H78.9045L75.1105 33.3564H75.8385L72.0585 42.1904H70.1825ZM72.2125 39.9224L72.7025 38.4944H77.9945L78.4845 39.9224H72.2125ZM86.9626 42.3304C86.2159 42.3304 85.5206 42.2091 84.8766 41.9664C84.2419 41.7144 83.6866 41.3644 83.2106 40.9164C82.7439 40.4591 82.3799 39.9224 82.1186 39.3064C81.8573 38.6904 81.7266 38.0184 81.7266 37.2904C81.7266 36.5624 81.8573 35.8904 82.1186 35.2744C82.3799 34.6584 82.7486 34.1264 83.2246 33.6784C83.7006 33.2211 84.2559 32.8711 84.8906 32.6284C85.5253 32.3764 86.2206 32.2504 86.9766 32.2504C87.7793 32.2504 88.5119 32.3904 89.1746 32.6704C89.8373 32.9411 90.3973 33.3471 90.8546 33.8884L89.6786 34.9944C89.3239 34.6118 88.9273 34.3271 88.4886 34.1404C88.0499 33.9444 87.5739 33.8464 87.0606 33.8464C86.5473 33.8464 86.0759 33.9304 85.6466 34.0984C85.2266 34.2664 84.8579 34.5044 84.5406 34.8124C84.2326 35.1204 83.9899 35.4844 83.8126 35.9044C83.6446 36.3244 83.5606 36.7864 83.5606 37.2904C83.5606 37.7944 83.6446 38.2564 83.8126 38.6764C83.9899 39.0964 84.2326 39.4604 84.5406 39.7684C84.8579 40.0764 85.2266 40.3144 85.6466 40.4824C86.0759 40.6504 86.5473 40.7344 87.0606 40.7344C87.5739 40.7344 88.0499 40.6411 88.4886 40.4544C88.9273 40.2584 89.3239 39.9644 89.6786 39.5724L90.8546 40.6924C90.3973 41.2244 89.8373 41.6304 89.1746 41.9104C88.5119 42.1904 87.7746 42.3304 86.9626 42.3304ZM97.1274 42.3304C96.3807 42.3304 95.6854 42.2091 95.0414 41.9664C94.4067 41.7144 93.8514 41.3644 93.3754 40.9164C92.9087 40.4591 92.5447 39.9224 92.2834 39.3064C92.022 38.6904 91.8914 38.0184 91.8914 37.2904C91.8914 36.5624 92.022 35.8904 92.2834 35.2744C92.5447 34.6584 92.9134 34.1264 93.3894 33.6784C93.8654 33.2211 94.4207 32.8711 95.0554 32.6284C95.69 32.3764 96.3854 32.2504 97.1414 32.2504C97.944 32.2504 98.6767 32.3904 99.3394 32.6704C100.002 32.9411 100.562 33.3471 101.019 33.8884L99.8434 34.9944C99.4887 34.6118 99.092 34.3271 98.6534 34.1404C98.2147 33.9444 97.7387 33.8464 97.2254 33.8464C96.712 33.8464 96.2407 33.9304 95.8114 34.0984C95.3914 34.2664 95.0227 34.5044 94.7054 34.8124C94.3974 35.1204 94.1547 35.4844 93.9774 35.9044C93.8094 36.3244 93.7254 36.7864 93.7254 37.2904C93.7254 37.7944 93.8094 38.2564 93.9774 38.6764C94.1547 39.0964 94.3974 39.4604 94.7054 39.7684C95.0227 40.0764 95.3914 40.3144 95.8114 40.4824C96.2407 40.6504 96.712 40.7344 97.2254 40.7344C97.7387 40.7344 98.2147 40.6411 98.6534 40.4544C99.092 40.2584 99.4887 39.9644 99.8434 39.5724L101.019 40.6924C100.562 41.2244 100.002 41.6304 99.3394 41.9104C98.6767 42.1904 97.9394 42.3304 97.1274 42.3304ZM109.012 38.3824C108.498 38.5971 107.999 38.7558 107.514 38.8584C107.028 38.9611 106.557 39.0124 106.1 39.0124C104.849 39.0124 103.883 38.7138 103.202 38.1164C102.53 37.5098 102.194 36.6418 102.194 35.5124V32.3904H104V35.3164C104 36.0071 104.2 36.5344 104.602 36.8984C105.003 37.2624 105.577 37.4444 106.324 37.4444C106.772 37.4444 107.22 37.3931 107.668 37.2904C108.125 37.1878 108.564 37.0291 108.984 36.8144L109.012 38.3824ZM108.732 42.1904V32.3904H110.538V42.1904H108.732ZM113.578 42.1904V32.3904H115.37V39.3484L120.634 32.3904H122.328V42.1904H120.536V35.2464L115.272 42.1904H113.578ZM127.414 42.1904V33.4824L127.848 33.9304H124.18V32.3904H132.468V33.9304H128.8L129.22 33.4824V42.1904H127.414ZM132.579 42.1904L136.989 32.3904H138.781L143.205 42.1904H141.301L137.507 33.3564H138.235L134.455 42.1904H132.579ZM134.609 39.9224L135.099 38.4944H140.391L140.881 39.9224H134.609ZM146.554 42.1904V33.4824L146.988 33.9304H143.32V32.3904H151.608V33.9304H147.94L148.36 33.4824V42.1904H146.554ZM157.98 35.7084C159.146 35.7084 160.047 35.9698 160.682 36.4924C161.316 37.0151 161.634 37.7991 161.634 38.8444C161.634 39.9458 161.284 40.7811 160.584 41.3504C159.893 41.9104 158.927 42.1904 157.686 42.1904H153.472V32.3904H155.264V35.7084H157.98ZM157.602 40.7904C158.302 40.7904 158.843 40.6271 159.226 40.3004C159.618 39.9738 159.814 39.4978 159.814 38.8724C159.814 38.2564 159.622 37.8084 159.24 37.5284C158.857 37.2391 158.311 37.0944 157.602 37.0944H155.264V40.7904H157.602ZM172.43 42.3304C171.683 42.3304 170.988 42.2091 170.344 41.9664C169.709 41.7144 169.154 41.3644 168.678 40.9164C168.211 40.4591 167.847 39.9224 167.586 39.3064C167.325 38.6904 167.194 38.0184 167.194 37.2904C167.194 36.5624 167.325 35.8904 167.586 35.2744C167.847 34.6584 168.216 34.1264 168.692 33.6784C169.168 33.2211 169.723 32.8711 170.358 32.6284C170.993 32.3764 171.688 32.2504 172.444 32.2504C173.247 32.2504 173.979 32.3904 174.642 32.6704C175.305 32.9411 175.865 33.3471 176.322 33.8884L175.146 34.9944C174.791 34.6118 174.395 34.3271 173.956 34.1404C173.517 33.9444 173.041 33.8464 172.528 33.8464C172.015 33.8464 171.543 33.9304 171.114 34.0984C170.694 34.2664 170.325 34.5044 170.008 34.8124C169.7 35.1204 169.457 35.4844 169.28 35.9044C169.112 36.3244 169.028 36.7864 169.028 37.2904C169.028 37.7944 169.112 38.2564 169.28 38.6764C169.457 39.0964 169.7 39.4604 170.008 39.7684C170.325 40.0764 170.694 40.3144 171.114 40.4824C171.543 40.6504 172.015 40.7344 172.528 40.7344C173.041 40.7344 173.517 40.6411 173.956 40.4544C174.395 40.2584 174.791 39.9644 175.146 39.5724L176.322 40.6924C175.865 41.2244 175.305 41.6304 174.642 41.9104C173.979 42.1904 173.242 42.3304 172.43 42.3304ZM180.24 42.1904V33.4824L180.674 33.9304H177.006V32.3904H185.294V33.9304H181.626L182.046 33.4824V42.1904H180.24ZM191.557 42.3304C190.792 42.3304 190.087 42.2044 189.443 41.9524C188.799 41.7004 188.239 41.3504 187.763 40.9024C187.287 40.4451 186.919 39.9131 186.657 39.3064C186.396 38.6904 186.265 38.0184 186.265 37.2904C186.265 36.5624 186.396 35.8951 186.657 35.2884C186.919 34.6724 187.287 34.1404 187.763 33.6924C188.239 33.2351 188.799 32.8804 189.443 32.6284C190.087 32.3764 190.787 32.2504 191.543 32.2504C192.309 32.2504 193.009 32.3764 193.643 32.6284C194.287 32.8804 194.847 33.2351 195.323 33.6924C195.799 34.1404 196.168 34.6724 196.429 35.2884C196.691 35.8951 196.821 36.5624 196.821 37.2904C196.821 38.0184 196.691 38.6904 196.429 39.3064C196.168 39.9224 195.799 40.4544 195.323 40.9024C194.847 41.3504 194.287 41.7004 193.643 41.9524C193.009 42.2044 192.313 42.3304 191.557 42.3304ZM191.543 40.7344C192.038 40.7344 192.495 40.6504 192.915 40.4824C193.335 40.3144 193.699 40.0764 194.007 39.7684C194.315 39.4511 194.553 39.0871 194.721 38.6764C194.899 38.2564 194.987 37.7944 194.987 37.2904C194.987 36.7864 194.899 36.3291 194.721 35.9184C194.553 35.4984 194.315 35.1344 194.007 34.8264C193.699 34.5091 193.335 34.2664 192.915 34.0984C192.495 33.9304 192.038 33.8464 191.543 33.8464C191.049 33.8464 190.591 33.9304 190.171 34.0984C189.761 34.2664 189.397 34.5091 189.079 34.8264C188.771 35.1344 188.529 35.4984 188.351 35.9184C188.183 36.3291 188.099 36.7864 188.099 37.2904C188.099 37.7851 188.183 38.2424 188.351 38.6624C188.529 39.0824 188.771 39.4511 189.079 39.7684C189.387 40.0764 189.751 40.3144 190.171 40.4824C190.591 40.6504 191.049 40.7344 191.543 40.7344ZM199.127 42.1904V32.3904H200.919V39.3484L206.183 32.3904H207.877V42.1904H206.085V35.2464L200.821 42.1904H199.127ZM210.919 42.1904V32.3904H212.403L216.701 39.5444H215.903L220.131 32.3904H221.615L221.643 42.1904H219.907L219.893 35.0924H220.257L216.673 41.0704H215.861L212.221 35.0924H212.641V42.1904H210.919ZM229.216 42.3304C228.45 42.3304 227.746 42.2044 227.102 41.9524C226.458 41.7004 225.898 41.3504 225.422 40.9024C224.946 40.4451 224.577 39.9131 224.316 39.3064C224.054 38.6904 223.924 38.0184 223.924 37.2904C223.924 36.5624 224.054 35.8951 224.316 35.2884C224.577 34.6724 224.946 34.1404 225.422 33.6924C225.898 33.2351 226.458 32.8804 227.102 32.6284C227.746 32.3764 228.446 32.2504 229.202 32.2504C229.967 32.2504 230.667 32.3764 231.302 32.6284C231.946 32.8804 232.506 33.2351 232.982 33.6924C233.458 34.1404 233.826 34.6724 234.088 35.2884C234.349 35.8951 234.48 36.5624 234.48 37.2904C234.48 38.0184 234.349 38.6904 234.088 39.3064C233.826 39.9224 233.458 40.4544 232.982 40.9024C232.506 41.3504 231.946 41.7004 231.302 41.9524C230.667 42.2044 229.972 42.3304 229.216 42.3304ZM229.202 40.7344C229.696 40.7344 230.154 40.6504 230.574 40.4824C230.994 40.3144 231.358 40.0764 231.666 39.7684C231.974 39.4511 232.212 39.0871 232.38 38.6764C232.557 38.2564 232.646 37.7944 232.646 37.2904C232.646 36.7864 232.557 36.3291 232.38 35.9184C232.212 35.4984 231.974 35.1344 231.666 34.8264C231.358 34.5091 230.994 34.2664 230.574 34.0984C230.154 33.9304 229.696 33.8464 229.202 33.8464C228.707 33.8464 228.25 33.9304 227.83 34.0984C227.419 34.2664 227.055 34.5091 226.738 34.8264C226.43 35.1344 226.187 35.4984 226.01 35.9184C225.842 36.3291 225.758 36.7864 225.758 37.2904C225.758 37.7851 225.842 38.2424 226.01 38.6624C226.187 39.0824 226.43 39.4511 226.738 39.7684C227.046 40.0764 227.41 40.3144 227.83 40.4824C228.25 40.6504 228.707 40.7344 229.202 40.7344ZM241.28 42.3304C240.533 42.3304 239.838 42.2091 239.194 41.9664C238.559 41.7144 238.004 41.3644 237.528 40.9164C237.061 40.4591 236.697 39.9224 236.436 39.3064C236.174 38.6904 236.044 38.0184 236.044 37.2904C236.044 36.5624 236.174 35.8904 236.436 35.2744C236.697 34.6584 237.066 34.1264 237.542 33.6784C238.018 33.2211 238.573 32.8711 239.208 32.6284C239.842 32.3764 240.538 32.2504 241.294 32.2504C242.096 32.2504 242.829 32.3904 243.492 32.6704C244.154 32.9411 244.714 33.3471 245.172 33.8884L243.996 34.9944C243.641 34.6118 243.244 34.3271 242.806 34.1404C242.367 33.9444 241.891 33.8464 241.378 33.8464C240.864 33.8464 240.393 33.9304 239.964 34.0984C239.544 34.2664 239.175 34.5044 238.858 34.8124C238.55 35.1204 238.307 35.4844 238.13 35.9044C237.962 36.3244 237.878 36.7864 237.878 37.2904C237.878 37.7944 237.962 38.2564 238.13 38.6764C238.307 39.0964 238.55 39.4604 238.858 39.7684C239.175 40.0764 239.544 40.3144 239.964 40.4824C240.393 40.6504 240.864 40.7344 241.378 40.7344C241.891 40.7344 242.367 40.6411 242.806 40.4544C243.244 40.2584 243.641 39.9644 243.996 39.5724L245.172 40.6924C244.714 41.2244 244.154 41.6304 243.492 41.9104C242.829 42.1904 242.092 42.3304 241.28 42.3304ZM249.09 42.1904V33.4824L249.524 33.9304H245.856V32.3904H254.144V33.9304H250.476L250.896 33.4824V42.1904H249.09ZM260.516 35.7084C261.683 35.7084 262.583 35.9698 263.218 36.4924C263.853 37.0151 264.17 37.7991 264.17 38.8444C264.17 39.9458 263.82 40.7811 263.12 41.3504C262.429 41.9104 261.463 42.1904 260.222 42.1904H256.008V32.3904H257.8V35.7084H260.516ZM260.138 40.7904C260.838 40.7904 261.379 40.6271 261.762 40.3004C262.154 39.9738 262.35 39.4978 262.35 38.8724C262.35 38.2564 262.159 37.8084 261.776 37.5284C261.393 37.2391 260.847 37.0944 260.138 37.0944H257.8V40.7904H260.138ZM57.5385 64.1904V54.3904H59.0225L63.3205 61.5444H62.5225L66.7505 54.3904H68.2345L68.2625 64.1904H66.5265L66.5125 57.0924H66.8765L63.2925 63.0704H62.4805L58.8405 57.0924H59.2605V64.1904H57.5385ZM70.039 64.1904L74.449 54.3904H76.241L80.665 64.1904H78.761L74.967 55.3564H75.695L71.915 64.1904H70.039ZM72.069 61.9224L72.559 60.4944H77.851L78.341 61.9224H72.069ZM84.0136 64.1904V55.4824L84.4476 55.9304H80.7796V54.3904H89.0676V55.9304H85.3996L85.8196 55.4824V64.1904H84.0136ZM92.5972 58.4644H97.4692V59.9624H92.5972V58.4644ZM92.7372 62.6644H98.2672V64.1904H90.9172V54.3904H98.0712V55.9164H92.7372V62.6644ZM100.576 64.1904V54.3904H104.608C105.476 54.3904 106.218 54.5304 106.834 54.8104C107.459 55.0904 107.94 55.4918 108.276 56.0144C108.612 56.5371 108.78 57.1578 108.78 57.8764C108.78 58.5951 108.612 59.2158 108.276 59.7384C107.94 60.2611 107.459 60.6624 106.834 60.9424C106.218 61.2224 105.476 61.3624 104.608 61.3624H101.584L102.396 60.5084V64.1904H100.576ZM102.396 60.7044L101.584 59.8224H104.524C105.327 59.8224 105.929 59.6544 106.33 59.3184C106.741 58.9731 106.946 58.4924 106.946 57.8764C106.946 57.2511 106.741 56.7704 106.33 56.4344C105.929 56.0984 105.327 55.9304 104.524 55.9304H101.584L102.396 55.0344V60.7044ZM110.796 64.1904V54.3904H112.588V61.3484L117.852 54.3904H119.546V64.1904H117.754V57.2464L112.49 64.1904H110.796ZM121.328 64.1904L125.738 54.3904H127.53L131.954 64.1904H130.05L126.256 55.3564H126.984L123.204 64.1904H121.328ZM123.358 61.9224L123.848 60.4944H129.14L129.63 61.9224H123.358ZM133.568 64.3304C133.409 64.3304 133.251 64.3164 133.092 64.2884C132.933 64.2604 132.761 64.2278 132.574 64.1904L132.7 62.6084C132.831 62.6458 132.971 62.6644 133.12 62.6644C133.512 62.6644 133.825 62.5058 134.058 62.1884C134.291 61.8618 134.459 61.3858 134.562 60.7604C134.665 60.1351 134.735 59.3651 134.772 58.4504L134.912 54.3904H142.122V64.1904H140.33V55.4824L140.75 55.9304H136.088L136.48 55.4684L136.382 58.3804C136.354 59.3511 136.289 60.2051 136.186 60.9424C136.083 61.6798 135.925 62.3004 135.71 62.8044C135.505 63.2991 135.229 63.6771 134.884 63.9384C134.539 64.1998 134.1 64.3304 133.568 64.3304ZM149.709 64.3304C148.944 64.3304 148.239 64.2044 147.595 63.9524C146.951 63.7004 146.391 63.3504 145.915 62.9024C145.439 62.4451 145.07 61.9131 144.809 61.3064C144.548 60.6904 144.417 60.0184 144.417 59.2904C144.417 58.5624 144.548 57.8951 144.809 57.2884C145.07 56.6724 145.439 56.1404 145.915 55.6924C146.391 55.2351 146.951 54.8804 147.595 54.6284C148.239 54.3764 148.939 54.2504 149.695 54.2504C150.46 54.2504 151.16 54.3764 151.795 54.6284C152.439 54.8804 152.999 55.2351 153.475 55.6924C153.951 56.1404 154.32 56.6724 154.581 57.2884C154.842 57.8951 154.973 58.5624 154.973 59.2904C154.973 60.0184 154.842 60.6904 154.581 61.3064C154.32 61.9224 153.951 62.4544 153.475 62.9024C152.999 63.3504 152.439 63.7004 151.795 63.9524C151.16 64.2044 150.465 64.3304 149.709 64.3304ZM149.695 62.7344C150.19 62.7344 150.647 62.6504 151.067 62.4824C151.487 62.3144 151.851 62.0764 152.159 61.7684C152.467 61.4511 152.705 61.0871 152.873 60.6764C153.05 60.2564 153.139 59.7944 153.139 59.2904C153.139 58.7864 153.05 58.3291 152.873 57.9184C152.705 57.4984 152.467 57.1344 152.159 56.8264C151.851 56.5091 151.487 56.2664 151.067 56.0984C150.647 55.9304 150.19 55.8464 149.695 55.8464C149.2 55.8464 148.743 55.9304 148.323 56.0984C147.912 56.2664 147.548 56.5091 147.231 56.8264C146.923 57.1344 146.68 57.4984 146.503 57.9184C146.335 58.3291 146.251 58.7864 146.251 59.2904C146.251 59.7851 146.335 60.2424 146.503 60.6624C146.68 61.0824 146.923 61.4511 147.231 61.7684C147.539 62.0764 147.903 62.3144 148.323 62.4824C148.743 62.6504 149.2 62.7344 149.695 62.7344ZM157.279 64.1904V54.3904H161.661C162.763 54.3904 163.621 54.6098 164.237 55.0484C164.853 55.4778 165.161 56.0984 165.161 56.9104C165.161 57.7131 164.867 58.3338 164.279 58.7724C163.691 59.2018 162.917 59.4164 161.955 59.4164L162.207 58.9124C163.299 58.9124 164.144 59.1318 164.741 59.5704C165.339 60.0091 165.637 60.6438 165.637 61.4744C165.637 62.3238 165.325 62.9911 164.699 63.4764C164.074 63.9524 163.15 64.1904 161.927 64.1904H157.279ZM159.071 62.7904H161.871C162.506 62.7904 162.987 62.6738 163.313 62.4404C163.64 62.1978 163.803 61.8291 163.803 61.3344C163.803 60.8398 163.64 60.4804 163.313 60.2564C162.987 60.0231 162.506 59.9064 161.871 59.9064H159.071V62.7904ZM159.071 58.5764H161.507C162.095 58.5764 162.543 58.4598 162.851 58.2264C163.159 57.9838 163.313 57.6384 163.313 57.1904C163.313 56.7238 163.159 56.3738 162.851 56.1404C162.543 55.9071 162.095 55.7904 161.507 55.7904H159.071V58.5764ZM172.154 64.1904V54.3904H173.946V61.3484L179.21 54.3904H180.904V64.1904H179.112V57.2464L173.848 64.1904H172.154ZM188.095 64.1904V54.3904H189.579L193.877 61.5444H193.079L197.307 54.3904H198.791L198.819 64.1904H197.083L197.069 57.0924H197.433L193.849 63.0704H193.037L189.397 57.0924H189.817V64.1904H188.095ZM206.391 64.3304C205.626 64.3304 204.921 64.2044 204.277 63.9524C203.633 63.7004 203.073 63.3504 202.597 62.9024C202.121 62.4451 201.752 61.9131 201.491 61.3064C201.23 60.6904 201.099 60.0184 201.099 59.2904C201.099 58.5624 201.23 57.8951 201.491 57.2884C201.752 56.6724 202.121 56.1404 202.597 55.6924C203.073 55.2351 203.633 54.8804 204.277 54.6284C204.921 54.3764 205.621 54.2504 206.377 54.2504C207.142 54.2504 207.842 54.3764 208.477 54.6284C209.121 54.8804 209.681 55.2351 210.157 55.6924C210.633 56.1404 211.002 56.6724 211.263 57.2884C211.524 57.8951 211.655 58.5624 211.655 59.2904C211.655 60.0184 211.524 60.6904 211.263 61.3064C211.002 61.9224 210.633 62.4544 210.157 62.9024C209.681 63.3504 209.121 63.7004 208.477 63.9524C207.842 64.2044 207.147 64.3304 206.391 64.3304ZM206.377 62.7344C206.872 62.7344 207.329 62.6504 207.749 62.4824C208.169 62.3144 208.533 62.0764 208.841 61.7684C209.149 61.4511 209.387 61.0871 209.555 60.6764C209.732 60.2564 209.821 59.7944 209.821 59.2904C209.821 58.7864 209.732 58.3291 209.555 57.9184C209.387 57.4984 209.149 57.1344 208.841 56.8264C208.533 56.5091 208.169 56.2664 207.749 56.0984C207.329 55.9304 206.872 55.8464 206.377 55.8464C205.882 55.8464 205.425 55.9304 205.005 56.0984C204.594 56.2664 204.23 56.5091 203.913 56.8264C203.605 57.1344 203.362 57.4984 203.185 57.9184C203.017 58.3291 202.933 58.7864 202.933 59.2904C202.933 59.7851 203.017 60.2424 203.185 60.6624C203.362 61.0824 203.605 61.4511 203.913 61.7684C204.221 62.0764 204.585 62.3144 205.005 62.4824C205.425 62.6504 205.882 62.7344 206.377 62.7344ZM220.835 54.3904H222.655V64.1904H220.835V54.3904ZM215.767 64.1904H213.947V54.3904H215.767V64.1904ZM220.975 59.9904H215.613V58.4364H220.975V59.9904ZM227.742 64.1904V55.4824L228.176 55.9304H224.508V54.3904H232.796V55.9304H229.128L229.548 55.4824V64.1904H227.742ZM232.908 64.1904L237.318 54.3904H239.11L243.534 64.1904H241.63L237.836 55.3564H238.564L234.784 64.1904H232.908ZM234.938 61.9224L235.428 60.4944H240.72L241.21 61.9224H234.938ZM255.856 64.1904L253 59.4164L254.54 58.5064L257.956 64.1904H255.856ZM251.18 60.0604V58.4924H254.134V60.0604H251.18ZM254.638 59.5004L252.944 59.2764L255.814 54.3904H257.746L254.638 59.5004ZM245.776 64.1904H243.676L247.092 58.5064L248.646 59.4164L245.776 64.1904ZM251.712 64.1904H249.934V54.3904H251.712V64.1904ZM250.466 60.0604H247.498V58.4924H250.466V60.0604ZM247.008 59.5004L243.886 54.3904H245.818L248.674 59.2764L247.008 59.5004ZM258.091 64.1904L262.501 54.3904H264.293L268.717 64.1904H266.813L263.019 55.3564H263.747L259.967 64.1904H258.091ZM260.121 61.9224L260.611 60.4944H265.903L266.393 61.9224H260.121Z" fill="white"/>
<path d="M311.677 39.1556L294 56.3027L295.921 58.1666L313.599 41.0194L311.677 39.1556Z" fill="white"/>
<path d="M314.024 47.9726H311.307V41.4357H304.568V38.7998H314.024V47.9726Z" fill="white"/>
<defs>
<filter id="filter0_i_1_3350" x="0" y="0" width="375" height="97" filterUnits="userSpaceOnUse" color-interpolation-filters="sRGB">
<feFlood flood-opacity="0" result="BackgroundImageFix"/>
<feBlend mode="normal" in="SourceGraphic" in2="BackgroundImageFix" result="shape"/>
<feColorMatrix in="SourceAlpha" type="matrix" values="0 0 0 0 0 0 0 0 0 0 0 0 0 0 0 0 0 0 127 0" result="hardAlpha"/>
<feOffset/>
<feGaussianBlur stdDeviation="11"/>
<feComposite in2="hardAlpha" operator="arithmetic" k2="-1" k3="1"/>
<feColorMatrix type="matrix" values="0 0 0 0 1 0 0 0 0 1 0 0 0 0 1 0 0 0 0.25 0"/>
<feBlend mode="normal" in2="shape" result="effect1_innerShadow_1_3350"/>
</filter>
</defs>
</svg>
