<svg width="276" height="60" viewBox="0 0 276 60" fill="none" xmlns="http://www.w3.org/2000/svg">
<g filter="url(#filter0_i_1_4160)">
<rect width="276" height="60" rx="30" fill="#12C868"/>
</g>
<path d="M49.0107 26V19H51.8907C52.5107 19 53.0407 19.1 53.4807 19.3C53.9273 19.5 54.2707 19.7867 54.5107 20.16C54.7507 20.5333 54.8707 20.9767 54.8707 21.49C54.8707 22.0033 54.7507 22.4467 54.5107 22.82C54.2707 23.1933 53.9273 23.48 53.4807 23.68C53.0407 23.88 52.5107 23.98 51.8907 23.98H49.7307L50.3107 23.37V26H49.0107ZM50.3107 23.51L49.7307 22.88H51.8307C52.404 22.88 52.834 22.76 53.1207 22.52C53.414 22.2733 53.5607 21.93 53.5607 21.49C53.5607 21.0433 53.414 20.7 53.1207 20.46C52.834 20.22 52.404 20.1 51.8307 20.1H49.7307L50.3107 19.46V23.51ZM55.0589 26L58.2089 19H59.4889L62.6489 26H61.2889L58.5789 19.69H59.0989L56.3989 26H55.0589ZM56.5089 24.38L56.8589 23.36H60.6389L60.9889 24.38H56.5089ZM67.0447 26.1C66.5114 26.1 66.0147 26.0133 65.5547 25.84C65.1014 25.66 64.7047 25.41 64.3647 25.09C64.0314 24.7633 63.7714 24.38 63.5847 23.94C63.3981 23.5 63.3047 23.02 63.3047 22.5C63.3047 21.98 63.3981 21.5 63.5847 21.06C63.7714 20.62 64.0347 20.24 64.3747 19.92C64.7147 19.5933 65.1114 19.3433 65.5647 19.17C66.0181 18.99 66.5147 18.9 67.0547 18.9C67.6281 18.9 68.1514 19 68.6247 19.2C69.0981 19.3933 69.4981 19.6833 69.8247 20.07L68.9847 20.86C68.7314 20.5867 68.4481 20.3833 68.1347 20.25C67.8214 20.11 67.4814 20.04 67.1147 20.04C66.7481 20.04 66.4114 20.1 66.1047 20.22C65.8047 20.34 65.5414 20.51 65.3147 20.73C65.0947 20.95 64.9214 21.21 64.7947 21.51C64.6747 21.81 64.6147 22.14 64.6147 22.5C64.6147 22.86 64.6747 23.19 64.7947 23.49C64.9214 23.79 65.0947 24.05 65.3147 24.27C65.5414 24.49 65.8047 24.66 66.1047 24.78C66.4114 24.9 66.7481 24.96 67.1147 24.96C67.4814 24.96 67.8214 24.8933 68.1347 24.76C68.4481 24.62 68.7314 24.41 68.9847 24.13L69.8247 24.93C69.4981 25.31 69.0981 25.6 68.6247 25.8C68.1514 26 67.6247 26.1 67.0447 26.1ZM74.3053 26.1C73.7719 26.1 73.2753 26.0133 72.8153 25.84C72.3619 25.66 71.9653 25.41 71.6253 25.09C71.2919 24.7633 71.0319 24.38 70.8453 23.94C70.6586 23.5 70.5653 23.02 70.5653 22.5C70.5653 21.98 70.6586 21.5 70.8453 21.06C71.0319 20.62 71.2953 20.24 71.6353 19.92C71.9753 19.5933 72.3719 19.3433 72.8253 19.17C73.2786 18.99 73.7753 18.9 74.3153 18.9C74.8886 18.9 75.4119 19 75.8853 19.2C76.3586 19.3933 76.7586 19.6833 77.0853 20.07L76.2453 20.86C75.9919 20.5867 75.7086 20.3833 75.3953 20.25C75.0819 20.11 74.7419 20.04 74.3753 20.04C74.0086 20.04 73.6719 20.1 73.3653 20.22C73.0653 20.34 72.8019 20.51 72.5753 20.73C72.3553 20.95 72.1819 21.21 72.0553 21.51C71.9353 21.81 71.8753 22.14 71.8753 22.5C71.8753 22.86 71.9353 23.19 72.0553 23.49C72.1819 23.79 72.3553 24.05 72.5753 24.27C72.8019 24.49 73.0653 24.66 73.3653 24.78C73.6719 24.9 74.0086 24.96 74.3753 24.96C74.7419 24.96 75.0819 24.8933 75.3953 24.76C75.7086 24.62 75.9919 24.41 76.2453 24.13L77.0853 24.93C76.7586 25.31 76.3586 25.6 75.8853 25.8C75.4119 26 74.8853 26.1 74.3053 26.1ZM82.7939 23.28C82.4273 23.4333 82.0706 23.5467 81.7239 23.62C81.3773 23.6933 81.0406 23.73 80.7139 23.73C79.8206 23.73 79.1306 23.5167 78.6439 23.09C78.1639 22.6567 77.9239 22.0367 77.9239 21.23V19H79.2139V21.09C79.2139 21.5833 79.3573 21.96 79.6439 22.22C79.9306 22.48 80.3406 22.61 80.8739 22.61C81.1939 22.61 81.5139 22.5733 81.8339 22.5C82.1606 22.4267 82.4739 22.3133 82.7739 22.16L82.7939 23.28ZM82.5939 26V19H83.8839V26H82.5939ZM86.0558 26V19H87.3358V23.97L91.0958 19H92.3058V26H91.0258V21.04L87.2658 26H86.0558ZM95.9385 26V19.78L96.2485 20.1H93.6285V19H99.5485V20.1H96.9285L97.2285 19.78V26H95.9385ZM99.6281 26L102.778 19H104.058L107.218 26H105.858L103.148 19.69H103.668L100.968 26H99.6281ZM101.078 24.38L101.428 23.36H105.208L105.558 24.38H101.078ZM109.61 26V19.78L109.92 20.1H107.3V19H113.22V20.1H110.6L110.9 19.78V26H109.61ZM117.771 21.37C118.604 21.37 119.248 21.5567 119.701 21.93C120.154 22.3033 120.381 22.8633 120.381 23.61C120.381 24.3967 120.131 24.9933 119.631 25.4C119.138 25.8 118.448 26 117.561 26H114.551V19H115.831V21.37H117.771ZM117.501 25C118.001 25 118.388 24.8833 118.661 24.65C118.941 24.4167 119.081 24.0767 119.081 23.63C119.081 23.19 118.944 22.87 118.671 22.67C118.398 22.4633 118.008 22.36 117.501 22.36H115.831V25H117.501ZM128.093 26.1C127.559 26.1 127.063 26.0133 126.603 25.84C126.149 25.66 125.753 25.41 125.413 25.09C125.079 24.7633 124.819 24.38 124.633 23.94C124.446 23.5 124.353 23.02 124.353 22.5C124.353 21.98 124.446 21.5 124.633 21.06C124.819 20.62 125.083 20.24 125.423 19.92C125.763 19.5933 126.159 19.3433 126.613 19.17C127.066 18.99 127.563 18.9 128.103 18.9C128.676 18.9 129.199 19 129.673 19.2C130.146 19.3933 130.546 19.6833 130.873 20.07L130.033 20.86C129.779 20.5867 129.496 20.3833 129.183 20.25C128.869 20.11 128.529 20.04 128.163 20.04C127.796 20.04 127.459 20.1 127.153 20.22C126.853 20.34 126.589 20.51 126.363 20.73C126.143 20.95 125.969 21.21 125.843 21.51C125.723 21.81 125.663 22.14 125.663 22.5C125.663 22.86 125.723 23.19 125.843 23.49C125.969 23.79 126.143 24.05 126.363 24.27C126.589 24.49 126.853 24.66 127.153 24.78C127.459 24.9 127.796 24.96 128.163 24.96C128.529 24.96 128.869 24.8933 129.183 24.76C129.496 24.62 129.779 24.41 130.033 24.13L130.873 24.93C130.546 25.31 130.146 25.6 129.673 25.8C129.199 26 128.673 26.1 128.093 26.1ZM133.672 26V19.78L133.982 20.1H131.362V19H137.282V20.1H134.662L134.962 19.78V26H133.672ZM141.755 26.1C141.209 26.1 140.705 26.01 140.245 25.83C139.785 25.65 139.385 25.4 139.045 25.08C138.705 24.7533 138.442 24.3733 138.255 23.94C138.069 23.5 137.975 23.02 137.975 22.5C137.975 21.98 138.069 21.5033 138.255 21.07C138.442 20.63 138.705 20.25 139.045 19.93C139.385 19.6033 139.785 19.35 140.245 19.17C140.705 18.99 141.205 18.9 141.745 18.9C142.292 18.9 142.792 18.99 143.245 19.17C143.705 19.35 144.105 19.6033 144.445 19.93C144.785 20.25 145.049 20.63 145.235 21.07C145.422 21.5033 145.515 21.98 145.515 22.5C145.515 23.02 145.422 23.5 145.235 23.94C145.049 24.38 144.785 24.76 144.445 25.08C144.105 25.4 143.705 25.65 143.245 25.83C142.792 26.01 142.295 26.1 141.755 26.1ZM141.745 24.96C142.099 24.96 142.425 24.9 142.725 24.78C143.025 24.66 143.285 24.49 143.505 24.27C143.725 24.0433 143.895 23.7833 144.015 23.49C144.142 23.19 144.205 22.86 144.205 22.5C144.205 22.14 144.142 21.8133 144.015 21.52C143.895 21.22 143.725 20.96 143.505 20.74C143.285 20.5133 143.025 20.34 142.725 20.22C142.425 20.1 142.099 20.04 141.745 20.04C141.392 20.04 141.065 20.1 140.765 20.22C140.472 20.34 140.212 20.5133 139.985 20.74C139.765 20.96 139.592 21.22 139.465 21.52C139.345 21.8133 139.285 22.14 139.285 22.5C139.285 22.8533 139.345 23.18 139.465 23.48C139.592 23.78 139.765 24.0433 139.985 24.27C140.205 24.49 140.465 24.66 140.765 24.78C141.065 24.9 141.392 24.96 141.745 24.96ZM147.162 26V19H148.442V23.97L152.202 19H153.412V26H152.132V21.04L148.372 26H147.162ZM155.585 26V19H156.645L159.715 24.11H159.145L162.165 19H163.225L163.245 26H162.005L161.995 20.93H162.255L159.695 25.2H159.115L156.515 20.93H156.815V26H155.585ZM168.654 26.1C168.107 26.1 167.604 26.01 167.144 25.83C166.684 25.65 166.284 25.4 165.944 25.08C165.604 24.7533 165.341 24.3733 165.154 23.94C164.967 23.5 164.874 23.02 164.874 22.5C164.874 21.98 164.967 21.5033 165.154 21.07C165.341 20.63 165.604 20.25 165.944 19.93C166.284 19.6033 166.684 19.35 167.144 19.17C167.604 18.99 168.104 18.9 168.644 18.9C169.191 18.9 169.691 18.99 170.144 19.17C170.604 19.35 171.004 19.6033 171.344 19.93C171.684 20.25 171.947 20.63 172.134 21.07C172.321 21.5033 172.414 21.98 172.414 22.5C172.414 23.02 172.321 23.5 172.134 23.94C171.947 24.38 171.684 24.76 171.344 25.08C171.004 25.4 170.604 25.65 170.144 25.83C169.691 26.01 169.194 26.1 168.654 26.1ZM168.644 24.96C168.997 24.96 169.324 24.9 169.624 24.78C169.924 24.66 170.184 24.49 170.404 24.27C170.624 24.0433 170.794 23.7833 170.914 23.49C171.041 23.19 171.104 22.86 171.104 22.5C171.104 22.14 171.041 21.8133 170.914 21.52C170.794 21.22 170.624 20.96 170.404 20.74C170.184 20.5133 169.924 20.34 169.624 20.22C169.324 20.1 168.997 20.04 168.644 20.04C168.291 20.04 167.964 20.1 167.664 20.22C167.371 20.34 167.111 20.5133 166.884 20.74C166.664 20.96 166.491 21.22 166.364 21.52C166.244 21.8133 166.184 22.14 166.184 22.5C166.184 22.8533 166.244 23.18 166.364 23.48C166.491 23.78 166.664 24.0433 166.884 24.27C167.104 24.49 167.364 24.66 167.664 24.78C167.964 24.9 168.291 24.96 168.644 24.96ZM177.271 26.1C176.738 26.1 176.241 26.0133 175.781 25.84C175.328 25.66 174.931 25.41 174.591 25.09C174.258 24.7633 173.998 24.38 173.811 23.94C173.625 23.5 173.531 23.02 173.531 22.5C173.531 21.98 173.625 21.5 173.811 21.06C173.998 20.62 174.261 20.24 174.601 19.92C174.941 19.5933 175.338 19.3433 175.791 19.17C176.245 18.99 176.741 18.9 177.281 18.9C177.855 18.9 178.378 19 178.851 19.2C179.325 19.3933 179.725 19.6833 180.051 20.07L179.211 20.86C178.958 20.5867 178.675 20.3833 178.361 20.25C178.048 20.11 177.708 20.04 177.341 20.04C176.975 20.04 176.638 20.1 176.331 20.22C176.031 20.34 175.768 20.51 175.541 20.73C175.321 20.95 175.148 21.21 175.021 21.51C174.901 21.81 174.841 22.14 174.841 22.5C174.841 22.86 174.901 23.19 175.021 23.49C175.148 23.79 175.321 24.05 175.541 24.27C175.768 24.49 176.031 24.66 176.331 24.78C176.638 24.9 176.975 24.96 177.341 24.96C177.708 24.96 178.048 24.8933 178.361 24.76C178.675 24.62 178.958 24.41 179.211 24.13L180.051 24.93C179.725 25.31 179.325 25.6 178.851 25.8C178.378 26 177.851 26.1 177.271 26.1ZM182.85 26V19.78L183.16 20.1H180.54V19H186.46V20.1H183.84L184.14 19.78V26H182.85ZM191.011 21.37C191.845 21.37 192.488 21.5567 192.941 21.93C193.395 22.3033 193.621 22.8633 193.621 23.61C193.621 24.3967 193.371 24.9933 192.871 25.4C192.378 25.8 191.688 26 190.801 26H187.791V19H189.071V21.37H191.011ZM190.741 25C191.241 25 191.628 24.8833 191.901 24.65C192.181 24.4167 192.321 24.0767 192.321 23.63C192.321 23.19 192.185 22.87 191.911 22.67C191.638 22.4633 191.248 22.36 190.741 22.36H189.071V25H190.741ZM46.0275 42V35H47.0875L50.1575 40.11H49.5875L52.6075 35H53.6675L53.6875 42H52.4475L52.4375 36.93H52.6975L50.1375 41.2H49.5575L46.9575 36.93H47.2575V42H46.0275ZM54.9564 42L58.1064 35H59.3864L62.5464 42H61.1864L58.4764 35.69H58.9964L56.2964 42H54.9564ZM56.4064 40.38L56.7564 39.36H60.5364L60.8864 40.38H56.4064ZM64.9383 42V35.78L65.2483 36.1H62.6283V35H68.5483V36.1H65.9283L66.2283 35.78V42H64.9383ZM71.0695 37.91H74.5495V38.98H71.0695V37.91ZM71.1695 40.91H75.1195V42H69.8695V35H74.9795V36.09H71.1695V40.91ZM76.7687 42V35H79.6487C80.2687 35 80.7987 35.1 81.2387 35.3C81.6853 35.5 82.0287 35.7867 82.2687 36.16C82.5087 36.5333 82.6287 36.9767 82.6287 37.49C82.6287 38.0033 82.5087 38.4467 82.2687 38.82C82.0287 39.1933 81.6853 39.48 81.2387 39.68C80.7987 39.88 80.2687 39.98 79.6487 39.98H77.4887L78.0687 39.37V42H76.7687ZM78.0687 39.51L77.4887 38.88H79.5887C80.162 38.88 80.592 38.76 80.8787 38.52C81.172 38.2733 81.3187 37.93 81.3187 37.49C81.3187 37.0433 81.172 36.7 80.8787 36.46C80.592 36.22 80.162 36.1 79.5887 36.1H77.4887L78.0687 35.46V39.51ZM84.0685 42V35H85.3485V39.97L89.1085 35H90.3185V42H89.0385V37.04L85.2785 42H84.0685ZM91.5912 42L94.7412 35H96.0212L99.1812 42H97.8212L95.1112 35.69H95.6312L92.9312 42H91.5912ZM93.0412 40.38L93.3912 39.36H97.1712L97.5212 40.38H93.0412ZM100.334 42.1C100.221 42.1 100.108 42.09 99.9944 42.07C99.881 42.05 99.7577 42.0267 99.6244 42L99.7144 40.87C99.8077 40.8967 99.9077 40.91 100.014 40.91C100.294 40.91 100.518 40.7967 100.684 40.57C100.851 40.3367 100.971 39.9967 101.044 39.55C101.118 39.1033 101.168 38.5533 101.194 37.9L101.294 35H106.444V42H105.164V35.78L105.464 36.1H102.134L102.414 35.77L102.344 37.85C102.324 38.5433 102.278 39.1533 102.204 39.68C102.131 40.2067 102.018 40.65 101.864 41.01C101.718 41.3633 101.521 41.6333 101.274 41.82C101.028 42.0067 100.714 42.1 100.334 42.1ZM111.864 42.1C111.317 42.1 110.814 42.01 110.354 41.83C109.894 41.65 109.494 41.4 109.154 41.08C108.814 40.7533 108.55 40.3733 108.364 39.94C108.177 39.5 108.084 39.02 108.084 38.5C108.084 37.98 108.177 37.5033 108.364 37.07C108.55 36.63 108.814 36.25 109.154 35.93C109.494 35.6033 109.894 35.35 110.354 35.17C110.814 34.99 111.314 34.9 111.854 34.9C112.4 34.9 112.9 34.99 113.354 35.17C113.814 35.35 114.214 35.6033 114.554 35.93C114.894 36.25 115.157 36.63 115.344 37.07C115.53 37.5033 115.624 37.98 115.624 38.5C115.624 39.02 115.53 39.5 115.344 39.94C115.157 40.38 114.894 40.76 114.554 41.08C114.214 41.4 113.814 41.65 113.354 41.83C112.9 42.01 112.404 42.1 111.864 42.1ZM111.854 40.96C112.207 40.96 112.534 40.9 112.834 40.78C113.134 40.66 113.394 40.49 113.614 40.27C113.834 40.0433 114.004 39.7833 114.124 39.49C114.25 39.19 114.314 38.86 114.314 38.5C114.314 38.14 114.25 37.8133 114.124 37.52C114.004 37.22 113.834 36.96 113.614 36.74C113.394 36.5133 113.134 36.34 112.834 36.22C112.534 36.1 112.207 36.04 111.854 36.04C111.5 36.04 111.174 36.1 110.874 36.22C110.58 36.34 110.32 36.5133 110.094 36.74C109.874 36.96 109.7 37.22 109.574 37.52C109.454 37.8133 109.394 38.14 109.394 38.5C109.394 38.8533 109.454 39.18 109.574 39.48C109.7 39.78 109.874 40.0433 110.094 40.27C110.314 40.49 110.574 40.66 110.874 40.78C111.174 40.9 111.5 40.96 111.854 40.96ZM117.271 42V35H120.401C121.188 35 121.801 35.1567 122.241 35.47C122.681 35.7767 122.901 36.22 122.901 36.8C122.901 37.3733 122.691 37.8167 122.271 38.13C121.851 38.4367 121.298 38.59 120.611 38.59L120.791 38.23C121.571 38.23 122.174 38.3867 122.601 38.7C123.028 39.0133 123.241 39.4667 123.241 40.06C123.241 40.6667 123.018 41.1433 122.571 41.49C122.124 41.83 121.464 42 120.591 42H117.271ZM118.551 41H120.551C121.004 41 121.348 40.9167 121.581 40.75C121.814 40.5767 121.931 40.3133 121.931 39.96C121.931 39.6067 121.814 39.35 121.581 39.19C121.348 39.0233 121.004 38.94 120.551 38.94H118.551V41ZM118.551 37.99H120.291C120.711 37.99 121.031 37.9067 121.251 37.74C121.471 37.5667 121.581 37.32 121.581 37C121.581 36.6667 121.471 36.4167 121.251 36.25C121.031 36.0833 120.711 36 120.291 36H118.551V37.99ZM127.895 42V35H129.175V39.97L132.935 35H134.145V42H132.865V37.04L129.105 42H127.895ZM139.282 42V35H140.342L143.412 40.11H142.842L145.862 35H146.922L146.942 42H145.702L145.692 36.93H145.952L143.392 41.2H142.812L140.212 36.93H140.512V42H139.282ZM152.351 42.1C151.804 42.1 151.301 42.01 150.841 41.83C150.381 41.65 149.981 41.4 149.641 41.08C149.301 40.7533 149.037 40.3733 148.851 39.94C148.664 39.5 148.571 39.02 148.571 38.5C148.571 37.98 148.664 37.5033 148.851 37.07C149.037 36.63 149.301 36.25 149.641 35.93C149.981 35.6033 150.381 35.35 150.841 35.17C151.301 34.99 151.801 34.9 152.341 34.9C152.887 34.9 153.387 34.99 153.841 35.17C154.301 35.35 154.701 35.6033 155.041 35.93C155.381 36.25 155.644 36.63 155.831 37.07C156.017 37.5033 156.111 37.98 156.111 38.5C156.111 39.02 156.017 39.5 155.831 39.94C155.644 40.38 155.381 40.76 155.041 41.08C154.701 41.4 154.301 41.65 153.841 41.83C153.387 42.01 152.891 42.1 152.351 42.1ZM152.341 40.96C152.694 40.96 153.021 40.9 153.321 40.78C153.621 40.66 153.881 40.49 154.101 40.27C154.321 40.0433 154.491 39.7833 154.611 39.49C154.737 39.19 154.801 38.86 154.801 38.5C154.801 38.14 154.737 37.8133 154.611 37.52C154.491 37.22 154.321 36.96 154.101 36.74C153.881 36.5133 153.621 36.34 153.321 36.22C153.021 36.1 152.694 36.04 152.341 36.04C151.987 36.04 151.661 36.1 151.361 36.22C151.067 36.34 150.807 36.5133 150.581 36.74C150.361 36.96 150.187 37.22 150.061 37.52C149.941 37.8133 149.881 38.14 149.881 38.5C149.881 38.8533 149.941 39.18 150.061 39.48C150.187 39.78 150.361 40.0433 150.581 40.27C150.801 40.49 151.061 40.66 151.361 40.78C151.661 40.9 151.987 40.96 152.341 40.96ZM162.668 35H163.968V42H162.668V35ZM159.048 42H157.748V35H159.048V42ZM162.768 39H158.938V37.89H162.768V39ZM167.602 42V35.78L167.912 36.1H165.292V35H171.212V36.1H168.592L168.892 35.78V42H167.602ZM171.291 42L174.441 35H175.721L178.881 42H177.521L174.811 35.69H175.331L172.631 42H171.291ZM172.741 40.38L173.091 39.36H176.871L177.221 40.38H172.741ZM187.683 42L185.643 38.59L186.743 37.94L189.183 42H187.683ZM184.343 39.05V37.93H186.453V39.05H184.343ZM186.813 38.65L185.603 38.49L187.653 35H189.033L186.813 38.65ZM180.483 42H178.983L181.423 37.94L182.533 38.59L180.483 42ZM184.723 42H183.453V35H184.723V42ZM183.833 39.05H181.713V37.93H183.833V39.05ZM181.363 38.65L179.133 35H180.513L182.553 38.49L181.363 38.65ZM189.279 42L192.429 35H193.709L196.869 42H195.509L192.799 35.69H193.319L190.619 42H189.279ZM190.729 40.38L191.079 39.36H194.859L195.209 40.38H190.729Z" fill="white"/>
<path d="M222.242 23.2746L209 36.5166L210.439 37.9559L223.681 24.714L222.242 23.2746Z" fill="white"/>
<path d="M224 30.0838H221.965V25.0356H216.917V23H224V30.0838Z" fill="white"/>
<defs>
<filter id="filter0_i_1_4160" x="0" y="0" width="276" height="60" filterUnits="userSpaceOnUse" color-interpolation-filters="sRGB">
<feFlood flood-opacity="0" result="BackgroundImageFix"/>
<feBlend mode="normal" in="SourceGraphic" in2="BackgroundImageFix" result="shape"/>
<feColorMatrix in="SourceAlpha" type="matrix" values="0 0 0 0 0 0 0 0 0 0 0 0 0 0 0 0 0 0 127 0" result="hardAlpha"/>
<feOffset/>
<feGaussianBlur stdDeviation="11"/>
<feComposite in2="hardAlpha" operator="arithmetic" k2="-1" k3="1"/>
<feColorMatrix type="matrix" values="0 0 0 0 1 0 0 0 0 1 0 0 0 0 1 0 0 0 0.25 0"/>
<feBlend mode="normal" in2="shape" result="effect1_innerShadow_1_4160"/>
</filter>
</defs>
</svg>
