<svg width="335" height="100" viewBox="0 0 335 100" fill="none" xmlns="http://www.w3.org/2000/svg">
<g filter="url(#filter0_i_1_3357)">
<rect width="335" height="100" rx="50" fill="#F38120"/>
</g>
<path d="M86.2092 37.89C86.7972 38.0767 87.2546 38.38 87.5812 38.8C87.9172 39.2107 88.0852 39.696 88.0852 40.256C88.0852 40.844 87.8939 41.3573 87.5112 41.796C87.1286 42.2253 86.6152 42.5567 85.9712 42.79C85.3366 43.0233 84.6412 43.14 83.8852 43.14C83.2319 43.14 82.5739 43.0513 81.9112 42.874C81.2579 42.6873 80.6512 42.412 80.0912 42.048L80.6792 40.718C81.1086 41.0073 81.5846 41.2313 82.1072 41.39C82.6299 41.5393 83.1479 41.614 83.6612 41.614C84.3986 41.614 85.0099 41.4693 85.4952 41.18C85.9899 40.8907 86.2372 40.494 86.2372 39.99C86.2372 39.5607 86.0599 39.234 85.7052 39.01C85.3506 38.786 84.8606 38.674 84.2352 38.674H81.9532V37.246H84.0952C84.6366 37.246 85.0612 37.134 85.3692 36.91C85.6772 36.686 85.8312 36.3827 85.8312 36C85.8312 35.5427 85.6212 35.188 85.2012 34.936C84.7906 34.684 84.2632 34.558 83.6192 34.558C83.1806 34.558 82.7279 34.6233 82.2612 34.754C81.7946 34.8753 81.3559 35.0573 80.9452 35.3L80.3712 33.83C80.8752 33.5593 81.4072 33.3587 81.9672 33.228C82.5366 33.088 83.1012 33.018 83.6612 33.018C84.3892 33.018 85.0566 33.13 85.6632 33.354C86.2792 33.578 86.7692 33.9 87.1332 34.32C87.4972 34.7307 87.6792 35.216 87.6792 35.776C87.6792 36.2613 87.5486 36.686 87.2872 37.05C87.0259 37.414 86.6666 37.694 86.2092 37.89ZM96.925 40.732H92.025L91.059 43H89.183L93.593 33.2H95.385L99.809 43H97.905L96.925 40.732ZM96.323 39.304L94.475 35.02L92.641 39.304H96.323ZM110.272 33.2V43H108.48V34.74H103.398V43H101.606V33.2H110.272ZM113.329 33.2H115.121V40.158L120.385 33.2H122.079V43H120.287V36.056L115.023 43H113.329V33.2ZM129.615 43.14C128.626 43.14 127.73 42.9253 126.927 42.496C126.134 42.0573 125.508 41.4553 125.051 40.69C124.603 39.9247 124.379 39.0613 124.379 38.1C124.379 37.1387 124.608 36.2753 125.065 35.51C125.522 34.7447 126.148 34.1473 126.941 33.718C127.744 33.2793 128.64 33.06 129.629 33.06C130.432 33.06 131.164 33.2 131.827 33.48C132.49 33.76 133.05 34.166 133.507 34.698L132.331 35.804C131.622 35.0387 130.749 34.656 129.713 34.656C129.041 34.656 128.439 34.8053 127.907 35.104C127.375 35.3933 126.96 35.7993 126.661 36.322C126.362 36.8447 126.213 37.4373 126.213 38.1C126.213 38.7627 126.362 39.3553 126.661 39.878C126.96 40.4007 127.375 40.8113 127.907 41.11C128.439 41.3993 129.041 41.544 129.713 41.544C130.749 41.544 131.622 41.1567 132.331 40.382L133.507 41.502C133.05 42.034 132.485 42.44 131.813 42.72C131.15 43 130.418 43.14 129.615 43.14ZM141.768 40.732H136.868L135.902 43H134.026L138.436 33.2H140.228L144.652 43H142.748L141.768 40.732ZM141.166 39.304L139.318 35.02L137.484 39.304H141.166ZM153.054 34.74H149.806V43H148V34.74H144.766V33.2H153.054V34.74ZM159.426 36.518C160.602 36.518 161.503 36.784 162.128 37.316C162.763 37.8387 163.08 38.618 163.08 39.654C163.08 40.7367 162.735 41.5673 162.044 42.146C161.353 42.7153 160.383 43 159.132 43H154.918V33.2H156.71V36.518H159.426ZM159.048 41.6C159.757 41.6 160.303 41.4367 160.686 41.11C161.069 40.7833 161.26 40.3073 161.26 39.682C161.26 38.4967 160.523 37.904 159.048 37.904H156.71V41.6H159.048ZM169.727 43.14C168.738 43.14 167.842 42.9253 167.039 42.496C166.246 42.0573 165.62 41.4553 165.163 40.69C164.715 39.9247 164.491 39.0613 164.491 38.1C164.491 37.1387 164.72 36.2753 165.177 35.51C165.634 34.7447 166.26 34.1473 167.053 33.718C167.856 33.2793 168.752 33.06 169.741 33.06C170.544 33.06 171.276 33.2 171.939 33.48C172.602 33.76 173.162 34.166 173.619 34.698L172.443 35.804C171.734 35.0387 170.861 34.656 169.825 34.656C169.153 34.656 168.551 34.8053 168.019 35.104C167.487 35.3933 167.072 35.7993 166.773 36.322C166.474 36.8447 166.325 37.4373 166.325 38.1C166.325 38.7627 166.474 39.3553 166.773 39.878C167.072 40.4007 167.487 40.8113 168.019 41.11C168.551 41.3993 169.153 41.544 169.825 41.544C170.861 41.544 171.734 41.1567 172.443 40.382L173.619 41.502C173.162 42.034 172.597 42.44 171.925 42.72C171.262 43 170.53 43.14 169.727 43.14ZM182.874 33.2V43H181.082V40.27H178.66H178.464L176.644 43H174.726L176.826 39.976C176.145 39.724 175.617 39.3273 175.244 38.786C174.88 38.2353 174.698 37.5727 174.698 36.798C174.698 36.0513 174.866 35.4073 175.202 34.866C175.538 34.3247 176.014 33.914 176.63 33.634C177.246 33.3447 177.969 33.2 178.8 33.2H182.874ZM178.856 34.74C178.109 34.74 177.535 34.9127 177.134 35.258C176.742 35.6033 176.546 36.1073 176.546 36.77C176.546 37.414 176.737 37.9133 177.12 38.268C177.503 38.6133 178.058 38.786 178.786 38.786H181.082V34.74H178.856ZM198.775 33.2V43H196.955V38.8H191.887V43H190.067V33.2H191.887V37.246H196.955V33.2H198.775ZM208.3 40.732H203.4L202.434 43H200.558L204.968 33.2H206.76L211.184 43H209.28L208.3 40.732ZM207.698 39.304L205.85 35.02L204.016 39.304H207.698ZM66.1196 55.2V65H64.3276V56.74H59.2456V65H57.4536V55.2H66.1196ZM73.195 55.2C74.0443 55.2 74.7816 55.34 75.407 55.62C76.0416 55.9 76.527 56.3013 76.863 56.824C77.199 57.3467 77.367 57.9673 77.367 58.686C77.367 59.3953 77.199 60.016 76.863 60.548C76.527 61.0707 76.0416 61.472 75.407 61.752C74.7816 62.032 74.0443 62.172 73.195 62.172H70.983V65H69.163V55.2H73.195ZM73.111 60.632C73.9043 60.632 74.5063 60.464 74.917 60.128C75.3276 59.792 75.533 59.3113 75.533 58.686C75.533 58.0607 75.3276 57.58 74.917 57.244C74.5063 56.908 73.9043 56.74 73.111 56.74H70.983V60.632H73.111ZM84.0415 65.14C83.0428 65.14 82.1421 64.9253 81.3395 64.496C80.5368 64.0573 79.9068 63.4553 79.4495 62.69C78.9921 61.9153 78.7635 61.052 78.7635 60.1C78.7635 59.148 78.9921 58.2893 79.4495 57.524C79.9068 56.7493 80.5368 56.1473 81.3395 55.718C82.1421 55.2793 83.0428 55.06 84.0415 55.06C85.0401 55.06 85.9408 55.2793 86.7435 55.718C87.5461 56.1473 88.1761 56.7447 88.6335 57.51C89.0908 58.2753 89.3195 59.1387 89.3195 60.1C89.3195 61.0613 89.0908 61.9247 88.6335 62.69C88.1761 63.4553 87.5461 64.0573 86.7435 64.496C85.9408 64.9253 85.0401 65.14 84.0415 65.14ZM84.0415 63.544C84.6948 63.544 85.2828 63.3993 85.8055 63.11C86.3281 62.8113 86.7388 62.4007 87.0375 61.878C87.3361 61.346 87.4855 60.7533 87.4855 60.1C87.4855 59.4467 87.3361 58.8587 87.0375 58.336C86.7388 57.804 86.3281 57.3933 85.8055 57.104C85.2828 56.8053 84.6948 56.656 84.0415 56.656C83.3881 56.656 82.8001 56.8053 82.2775 57.104C81.7548 57.3933 81.3441 57.804 81.0455 58.336C80.7468 58.8587 80.5975 59.4467 80.5975 60.1C80.5975 60.7533 80.7468 61.346 81.0455 61.878C81.3441 62.4007 81.7548 62.8113 82.2775 63.11C82.8001 63.3993 83.3881 63.544 84.0415 63.544ZM96.1197 65.14C95.1303 65.14 94.2343 64.9253 93.4317 64.496C92.6383 64.0573 92.013 63.4553 91.5557 62.69C91.1077 61.9247 90.8837 61.0613 90.8837 60.1C90.8837 59.1387 91.1123 58.2753 91.5697 57.51C92.027 56.7447 92.6523 56.1473 93.4457 55.718C94.2483 55.2793 95.1443 55.06 96.1337 55.06C96.9363 55.06 97.669 55.2 98.3317 55.48C98.9943 55.76 99.5543 56.166 100.012 56.698L98.8357 57.804C98.1263 57.0387 97.2537 56.656 96.2177 56.656C95.5457 56.656 94.9437 56.8053 94.4117 57.104C93.8797 57.3933 93.4643 57.7993 93.1657 58.322C92.867 58.8447 92.7177 59.4373 92.7177 60.1C92.7177 60.7627 92.867 61.3553 93.1657 61.878C93.4643 62.4007 93.8797 62.8113 94.4117 63.11C94.9437 63.3993 95.5457 63.544 96.2177 63.544C97.2537 63.544 98.1263 63.1567 98.8357 62.382L100.012 63.502C99.5543 64.034 98.9897 64.44 98.3177 64.72C97.655 65 96.9223 65.14 96.1197 65.14ZM110.983 65L110.969 58.504L107.749 63.88H106.937L103.717 58.588V65H101.995V55.2H103.493L107.371 61.682L111.207 55.2H112.691L112.719 65H110.983ZM120.278 65.14C119.279 65.14 118.379 64.9253 117.576 64.496C116.773 64.0573 116.143 63.4553 115.686 62.69C115.229 61.9153 115 61.052 115 60.1C115 59.148 115.229 58.2893 115.686 57.524C116.143 56.7493 116.773 56.1473 117.576 55.718C118.379 55.2793 119.279 55.06 120.278 55.06C121.277 55.06 122.177 55.2793 122.98 55.718C123.783 56.1473 124.413 56.7447 124.87 57.51C125.327 58.2753 125.556 59.1387 125.556 60.1C125.556 61.0613 125.327 61.9247 124.87 62.69C124.413 63.4553 123.783 64.0573 122.98 64.496C122.177 64.9253 121.277 65.14 120.278 65.14ZM120.278 63.544C120.931 63.544 121.519 63.3993 122.042 63.11C122.565 62.8113 122.975 62.4007 123.274 61.878C123.573 61.346 123.722 60.7533 123.722 60.1C123.722 59.4467 123.573 58.8587 123.274 58.336C122.975 57.804 122.565 57.3933 122.042 57.104C121.519 56.8053 120.931 56.656 120.278 56.656C119.625 56.656 119.037 56.8053 118.514 57.104C117.991 57.3933 117.581 57.804 117.282 58.336C116.983 58.8587 116.834 59.4467 116.834 60.1C116.834 60.7533 116.983 61.346 117.282 61.878C117.581 62.4007 117.991 62.8113 118.514 63.11C119.037 63.3993 119.625 63.544 120.278 63.544ZM134.823 56.74H131.575V65H129.769V56.74H126.535V55.2H134.823V56.74ZM140.705 55.2C141.554 55.2 142.292 55.34 142.917 55.62C143.552 55.9 144.037 56.3013 144.373 56.824C144.709 57.3467 144.877 57.9673 144.877 58.686C144.877 59.3953 144.709 60.016 144.373 60.548C144.037 61.0707 143.552 61.472 142.917 61.752C142.292 62.032 141.554 62.172 140.705 62.172H138.493V65H136.673V55.2H140.705ZM140.621 60.632C141.414 60.632 142.016 60.464 142.427 60.128C142.838 59.792 143.043 59.3113 143.043 58.686C143.043 58.0607 142.838 57.58 142.427 57.244C142.016 56.908 141.414 56.74 140.621 56.74H138.493V60.632H140.621ZM155.701 65.14C154.702 65.14 153.801 64.9253 152.999 64.496C152.196 64.0573 151.566 63.4553 151.109 62.69C150.651 61.9153 150.423 61.052 150.423 60.1C150.423 59.148 150.651 58.2893 151.109 57.524C151.566 56.7493 152.196 56.1473 152.999 55.718C153.801 55.2793 154.702 55.06 155.701 55.06C156.699 55.06 157.6 55.2793 158.403 55.718C159.205 56.1473 159.835 56.7447 160.293 57.51C160.75 58.2753 160.979 59.1387 160.979 60.1C160.979 61.0613 160.75 61.9247 160.293 62.69C159.835 63.4553 159.205 64.0573 158.403 64.496C157.6 64.9253 156.699 65.14 155.701 65.14ZM155.701 63.544C156.354 63.544 156.942 63.3993 157.465 63.11C157.987 62.8113 158.398 62.4007 158.697 61.878C158.995 61.346 159.145 60.7533 159.145 60.1C159.145 59.4467 158.995 58.8587 158.697 58.336C158.398 57.804 157.987 57.3933 157.465 57.104C156.942 56.8053 156.354 56.656 155.701 56.656C155.047 56.656 154.459 56.8053 153.937 57.104C153.414 57.3933 153.003 57.804 152.705 58.336C152.406 58.8587 152.257 59.4467 152.257 60.1C152.257 60.7533 152.406 61.346 152.705 61.878C153.003 62.4007 153.414 62.8113 153.937 63.11C154.459 63.3993 155.047 63.544 155.701 63.544ZM163.285 55.2H170.915V56.698H165.077V59.106H167.975C169.151 59.106 170.042 59.3533 170.649 59.848C171.265 60.3333 171.573 61.038 171.573 61.962C171.573 62.9327 171.237 63.684 170.565 64.216C169.893 64.7387 168.936 65 167.695 65H163.285V55.2ZM167.597 63.6C168.297 63.6 168.829 63.4647 169.193 63.194C169.557 62.9233 169.739 62.5313 169.739 62.018C169.739 61.01 169.025 60.506 167.597 60.506H165.077V63.6H167.597ZM179.528 58.518C180.704 58.518 181.605 58.784 182.23 59.316C182.865 59.8387 183.182 60.618 183.182 61.654C183.182 62.746 182.837 63.5767 182.146 64.146C181.465 64.7153 180.49 65 179.22 65H175.02V56.74H172.15V55.2H176.812V58.518H179.528ZM179.15 63.6C179.86 63.6 180.401 63.4367 180.774 63.11C181.157 62.7833 181.348 62.3073 181.348 61.682C181.348 60.4967 180.616 59.904 179.15 59.904H176.812V63.6H179.15ZM192.659 63.474V65H185.309V55.2H192.463V56.726H187.129V59.274H191.861V60.772H187.129V63.474H192.659ZM198.58 60.87H196.76V65H194.968V55.2H196.76V59.302H198.636L201.45 55.2H203.382L200.036 59.946L203.508 65H201.45L198.58 60.87ZM212.04 56.74H208.792V65H206.986V56.74H203.752V55.2H212.04V56.74ZM218.289 65.14C217.29 65.14 216.39 64.9253 215.587 64.496C214.784 64.0573 214.154 63.4553 213.697 62.69C213.24 61.9153 213.011 61.052 213.011 60.1C213.011 59.148 213.24 58.2893 213.697 57.524C214.154 56.7493 214.784 56.1473 215.587 55.718C216.39 55.2793 217.29 55.06 218.289 55.06C219.288 55.06 220.188 55.2793 220.991 55.718C221.794 56.1473 222.424 56.7447 222.881 57.51C223.338 58.2753 223.567 59.1387 223.567 60.1C223.567 61.0613 223.338 61.9247 222.881 62.69C222.424 63.4553 221.794 64.0573 220.991 64.496C220.188 64.9253 219.288 65.14 218.289 65.14ZM218.289 63.544C218.942 63.544 219.53 63.3993 220.053 63.11C220.576 62.8113 220.986 62.4007 221.285 61.878C221.584 61.346 221.733 60.7533 221.733 60.1C221.733 59.4467 221.584 58.8587 221.285 58.336C220.986 57.804 220.576 57.3933 220.053 57.104C219.53 56.8053 218.942 56.656 218.289 56.656C217.636 56.656 217.048 56.8053 216.525 57.104C216.002 57.3933 215.592 57.804 215.293 58.336C214.994 58.8587 214.845 59.4467 214.845 60.1C214.845 60.7533 214.994 61.346 215.293 61.878C215.592 62.4007 216.002 62.8113 216.525 63.11C217.048 63.3993 217.636 63.544 218.289 63.544ZM232.313 59.904C232.938 60.072 233.414 60.3613 233.741 60.772C234.068 61.1733 234.231 61.6773 234.231 62.284C234.231 63.1427 233.914 63.81 233.279 64.286C232.644 64.762 231.725 65 230.521 65H225.873V55.2H230.255C231.356 55.2 232.215 55.4193 232.831 55.858C233.447 56.2967 233.755 56.9173 233.755 57.72C233.755 58.2333 233.629 58.6767 233.377 59.05C233.134 59.4233 232.78 59.708 232.313 59.904ZM227.665 59.386H230.101C230.689 59.386 231.137 59.2693 231.445 59.036C231.753 58.8027 231.907 58.4573 231.907 58C231.907 57.5427 231.753 57.1973 231.445 56.964C231.137 56.7213 230.689 56.6 230.101 56.6H227.665V59.386ZM230.465 63.6C231.753 63.6 232.397 63.1147 232.397 62.144C232.397 61.192 231.753 60.716 230.465 60.716H227.665V63.6H230.465Z" fill="white"/>
<path d="M285.678 40.3664L268 58.0439L269.921 59.9654L287.599 42.2879L285.678 40.3664Z" fill="white"/>
<path d="M288.024 49.4565H285.307V42.7174H278.568V40H288.024V49.4565Z" fill="white"/>
<defs>
<filter id="filter0_i_1_3357" x="0" y="0" width="335" height="100" filterUnits="userSpaceOnUse" color-interpolation-filters="sRGB">
<feFlood flood-opacity="0" result="BackgroundImageFix"/>
<feBlend mode="normal" in="SourceGraphic" in2="BackgroundImageFix" result="shape"/>
<feColorMatrix in="SourceAlpha" type="matrix" values="0 0 0 0 0 0 0 0 0 0 0 0 0 0 0 0 0 0 127 0" result="hardAlpha"/>
<feOffset/>
<feGaussianBlur stdDeviation="11"/>
<feComposite in2="hardAlpha" operator="arithmetic" k2="-1" k3="1"/>
<feColorMatrix type="matrix" values="0 0 0 0 1 0 0 0 0 1 0 0 0 0 1 0 0 0 0.25 0"/>
<feBlend mode="normal" in2="shape" result="effect1_innerShadow_1_3357"/>
</filter>
</defs>
</svg>
