<svg width="335" height="100" viewBox="0 0 335 100" fill="none" xmlns="http://www.w3.org/2000/svg">
<g filter="url(#filter0_i_1_3363)">
<rect width="335" height="100" rx="50" fill="#FD9C49"/>
</g>
<path d="M89.2092 37.89C89.7972 38.0767 90.2546 38.38 90.5812 38.8C90.9172 39.2107 91.0852 39.696 91.0852 40.256C91.0852 40.844 90.8939 41.3573 90.5112 41.796C90.1286 42.2253 89.6152 42.5567 88.9712 42.79C88.3366 43.0233 87.6412 43.14 86.8852 43.14C86.2319 43.14 85.5739 43.0513 84.9112 42.874C84.2579 42.6873 83.6512 42.412 83.0912 42.048L83.6792 40.718C84.1086 41.0073 84.5846 41.2313 85.1072 41.39C85.6299 41.5393 86.1479 41.614 86.6612 41.614C87.3986 41.614 88.0099 41.4693 88.4952 41.18C88.9899 40.8907 89.2372 40.494 89.2372 39.99C89.2372 39.5607 89.0599 39.234 88.7052 39.01C88.3506 38.786 87.8606 38.674 87.2352 38.674H84.9532V37.246H87.0952C87.6366 37.246 88.0612 37.134 88.3692 36.91C88.6772 36.686 88.8312 36.3827 88.8312 36C88.8312 35.5427 88.6212 35.188 88.2012 34.936C87.7906 34.684 87.2632 34.558 86.6192 34.558C86.1806 34.558 85.7279 34.6233 85.2612 34.754C84.7946 34.8753 84.3559 35.0573 83.9452 35.3L83.3712 33.83C83.8752 33.5593 84.4072 33.3587 84.9672 33.228C85.5366 33.088 86.1012 33.018 86.6612 33.018C87.3892 33.018 88.0566 33.13 88.6632 33.354C89.2792 33.578 89.7692 33.9 90.1332 34.32C90.4972 34.7307 90.6792 35.216 90.6792 35.776C90.6792 36.2613 90.5486 36.686 90.2872 37.05C90.0259 37.414 89.6666 37.694 89.2092 37.89ZM99.925 40.732H95.025L94.059 43H92.183L96.593 33.2H98.385L102.809 43H100.905L99.925 40.732ZM99.323 39.304L97.475 35.02L95.641 39.304H99.323ZM113.272 33.2V43H111.48V34.74H106.398V43H104.606V33.2H113.272ZM116.329 33.2H118.121V40.158L123.385 33.2H125.079V43H123.287V36.056L118.023 43H116.329V33.2ZM132.615 43.14C131.626 43.14 130.73 42.9253 129.927 42.496C129.134 42.0573 128.508 41.4553 128.051 40.69C127.603 39.9247 127.379 39.0613 127.379 38.1C127.379 37.1387 127.608 36.2753 128.065 35.51C128.522 34.7447 129.148 34.1473 129.941 33.718C130.744 33.2793 131.64 33.06 132.629 33.06C133.432 33.06 134.164 33.2 134.827 33.48C135.49 33.76 136.05 34.166 136.507 34.698L135.331 35.804C134.622 35.0387 133.749 34.656 132.713 34.656C132.041 34.656 131.439 34.8053 130.907 35.104C130.375 35.3933 129.96 35.7993 129.661 36.322C129.362 36.8447 129.213 37.4373 129.213 38.1C129.213 38.7627 129.362 39.3553 129.661 39.878C129.96 40.4007 130.375 40.8113 130.907 41.11C131.439 41.3993 132.041 41.544 132.713 41.544C133.749 41.544 134.622 41.1567 135.331 40.382L136.507 41.502C136.05 42.034 135.485 42.44 134.813 42.72C134.15 43 133.418 43.14 132.615 43.14ZM144.768 40.732H139.868L138.902 43H137.026L141.436 33.2H143.228L147.652 43H145.748L144.768 40.732ZM144.166 39.304L142.318 35.02L140.484 39.304H144.166ZM156.054 34.74H152.806V43H151V34.74H147.766V33.2H156.054V34.74ZM162.426 36.518C163.602 36.518 164.503 36.784 165.128 37.316C165.763 37.8387 166.08 38.618 166.08 39.654C166.08 40.7367 165.735 41.5673 165.044 42.146C164.353 42.7153 163.383 43 162.132 43H157.918V33.2H159.71V36.518H162.426ZM162.048 41.6C162.757 41.6 163.303 41.4367 163.686 41.11C164.069 40.7833 164.26 40.3073 164.26 39.682C164.26 38.4967 163.523 37.904 162.048 37.904H159.71V41.6H162.048ZM172.727 43.14C171.738 43.14 170.842 42.9253 170.039 42.496C169.246 42.0573 168.62 41.4553 168.163 40.69C167.715 39.9247 167.491 39.0613 167.491 38.1C167.491 37.1387 167.72 36.2753 168.177 35.51C168.634 34.7447 169.26 34.1473 170.053 33.718C170.856 33.2793 171.752 33.06 172.741 33.06C173.544 33.06 174.276 33.2 174.939 33.48C175.602 33.76 176.162 34.166 176.619 34.698L175.443 35.804C174.734 35.0387 173.861 34.656 172.825 34.656C172.153 34.656 171.551 34.8053 171.019 35.104C170.487 35.3933 170.072 35.7993 169.773 36.322C169.474 36.8447 169.325 37.4373 169.325 38.1C169.325 38.7627 169.474 39.3553 169.773 39.878C170.072 40.4007 170.487 40.8113 171.019 41.11C171.551 41.3993 172.153 41.544 172.825 41.544C173.861 41.544 174.734 41.1567 175.443 40.382L176.619 41.502C176.162 42.034 175.597 42.44 174.925 42.72C174.262 43 173.53 43.14 172.727 43.14ZM185.874 33.2V43H184.082V40.27H181.66H181.464L179.644 43H177.726L179.826 39.976C179.145 39.724 178.617 39.3273 178.244 38.786C177.88 38.2353 177.698 37.5727 177.698 36.798C177.698 36.0513 177.866 35.4073 178.202 34.866C178.538 34.3247 179.014 33.914 179.63 33.634C180.246 33.3447 180.969 33.2 181.8 33.2H185.874ZM181.856 34.74C181.109 34.74 180.535 34.9127 180.134 35.258C179.742 35.6033 179.546 36.1073 179.546 36.77C179.546 37.414 179.737 37.9133 180.12 38.268C180.503 38.6133 181.058 38.786 181.786 38.786H184.082V34.74H181.856ZM201.775 33.2V43H199.955V38.8H194.887V43H193.067V33.2H194.887V37.246H199.955V33.2H201.775ZM211.3 40.732H206.4L205.434 43H203.558L207.968 33.2H209.76L214.184 43H212.28L211.3 40.732ZM210.698 39.304L208.85 35.02L207.016 39.304H210.698ZM69.1196 55.2V65H67.3276V56.74H62.2456V65H60.4536V55.2H69.1196ZM76.195 55.2C77.0443 55.2 77.7816 55.34 78.407 55.62C79.0416 55.9 79.527 56.3013 79.863 56.824C80.199 57.3467 80.367 57.9673 80.367 58.686C80.367 59.3953 80.199 60.016 79.863 60.548C79.527 61.0707 79.0416 61.472 78.407 61.752C77.7816 62.032 77.0443 62.172 76.195 62.172H73.983V65H72.163V55.2H76.195ZM76.111 60.632C76.9043 60.632 77.5063 60.464 77.917 60.128C78.3276 59.792 78.533 59.3113 78.533 58.686C78.533 58.0607 78.3276 57.58 77.917 57.244C77.5063 56.908 76.9043 56.74 76.111 56.74H73.983V60.632H76.111ZM87.0415 65.14C86.0428 65.14 85.1421 64.9253 84.3395 64.496C83.5368 64.0573 82.9068 63.4553 82.4495 62.69C81.9921 61.9153 81.7635 61.052 81.7635 60.1C81.7635 59.148 81.9921 58.2893 82.4495 57.524C82.9068 56.7493 83.5368 56.1473 84.3395 55.718C85.1421 55.2793 86.0428 55.06 87.0415 55.06C88.0401 55.06 88.9408 55.2793 89.7435 55.718C90.5461 56.1473 91.1761 56.7447 91.6335 57.51C92.0908 58.2753 92.3195 59.1387 92.3195 60.1C92.3195 61.0613 92.0908 61.9247 91.6335 62.69C91.1761 63.4553 90.5461 64.0573 89.7435 64.496C88.9408 64.9253 88.0401 65.14 87.0415 65.14ZM87.0415 63.544C87.6948 63.544 88.2828 63.3993 88.8055 63.11C89.3281 62.8113 89.7388 62.4007 90.0375 61.878C90.3361 61.346 90.4855 60.7533 90.4855 60.1C90.4855 59.4467 90.3361 58.8587 90.0375 58.336C89.7388 57.804 89.3281 57.3933 88.8055 57.104C88.2828 56.8053 87.6948 56.656 87.0415 56.656C86.3881 56.656 85.8001 56.8053 85.2775 57.104C84.7548 57.3933 84.3441 57.804 84.0455 58.336C83.7468 58.8587 83.5975 59.4467 83.5975 60.1C83.5975 60.7533 83.7468 61.346 84.0455 61.878C84.3441 62.4007 84.7548 62.8113 85.2775 63.11C85.8001 63.3993 86.3881 63.544 87.0415 63.544ZM99.1197 65.14C98.1303 65.14 97.2343 64.9253 96.4317 64.496C95.6383 64.0573 95.013 63.4553 94.5557 62.69C94.1077 61.9247 93.8837 61.0613 93.8837 60.1C93.8837 59.1387 94.1123 58.2753 94.5697 57.51C95.027 56.7447 95.6523 56.1473 96.4457 55.718C97.2483 55.2793 98.1443 55.06 99.1337 55.06C99.9363 55.06 100.669 55.2 101.332 55.48C101.994 55.76 102.554 56.166 103.012 56.698L101.836 57.804C101.126 57.0387 100.254 56.656 99.2177 56.656C98.5457 56.656 97.9437 56.8053 97.4117 57.104C96.8797 57.3933 96.4643 57.7993 96.1657 58.322C95.867 58.8447 95.7177 59.4373 95.7177 60.1C95.7177 60.7627 95.867 61.3553 96.1657 61.878C96.4643 62.4007 96.8797 62.8113 97.4117 63.11C97.9437 63.3993 98.5457 63.544 99.2177 63.544C100.254 63.544 101.126 63.1567 101.836 62.382L103.012 63.502C102.554 64.034 101.99 64.44 101.318 64.72C100.655 65 99.9223 65.14 99.1197 65.14ZM113.983 65L113.969 58.504L110.749 63.88H109.937L106.717 58.588V65H104.995V55.2H106.493L110.371 61.682L114.207 55.2H115.691L115.719 65H113.983ZM123.278 65.14C122.279 65.14 121.379 64.9253 120.576 64.496C119.773 64.0573 119.143 63.4553 118.686 62.69C118.229 61.9153 118 61.052 118 60.1C118 59.148 118.229 58.2893 118.686 57.524C119.143 56.7493 119.773 56.1473 120.576 55.718C121.379 55.2793 122.279 55.06 123.278 55.06C124.277 55.06 125.177 55.2793 125.98 55.718C126.783 56.1473 127.413 56.7447 127.87 57.51C128.327 58.2753 128.556 59.1387 128.556 60.1C128.556 61.0613 128.327 61.9247 127.87 62.69C127.413 63.4553 126.783 64.0573 125.98 64.496C125.177 64.9253 124.277 65.14 123.278 65.14ZM123.278 63.544C123.931 63.544 124.519 63.3993 125.042 63.11C125.565 62.8113 125.975 62.4007 126.274 61.878C126.573 61.346 126.722 60.7533 126.722 60.1C126.722 59.4467 126.573 58.8587 126.274 58.336C125.975 57.804 125.565 57.3933 125.042 57.104C124.519 56.8053 123.931 56.656 123.278 56.656C122.625 56.656 122.037 56.8053 121.514 57.104C120.991 57.3933 120.581 57.804 120.282 58.336C119.983 58.8587 119.834 59.4467 119.834 60.1C119.834 60.7533 119.983 61.346 120.282 61.878C120.581 62.4007 120.991 62.8113 121.514 63.11C122.037 63.3993 122.625 63.544 123.278 63.544ZM137.823 56.74H134.575V65H132.769V56.74H129.535V55.2H137.823V56.74ZM143.705 55.2C144.554 55.2 145.292 55.34 145.917 55.62C146.552 55.9 147.037 56.3013 147.373 56.824C147.709 57.3467 147.877 57.9673 147.877 58.686C147.877 59.3953 147.709 60.016 147.373 60.548C147.037 61.0707 146.552 61.472 145.917 61.752C145.292 62.032 144.554 62.172 143.705 62.172H141.493V65H139.673V55.2H143.705ZM143.621 60.632C144.414 60.632 145.016 60.464 145.427 60.128C145.838 59.792 146.043 59.3113 146.043 58.686C146.043 58.0607 145.838 57.58 145.427 57.244C145.016 56.908 144.414 56.74 143.621 56.74H141.493V60.632H143.621ZM158.701 65.14C157.702 65.14 156.801 64.9253 155.999 64.496C155.196 64.0573 154.566 63.4553 154.109 62.69C153.651 61.9153 153.423 61.052 153.423 60.1C153.423 59.148 153.651 58.2893 154.109 57.524C154.566 56.7493 155.196 56.1473 155.999 55.718C156.801 55.2793 157.702 55.06 158.701 55.06C159.699 55.06 160.6 55.2793 161.403 55.718C162.205 56.1473 162.835 56.7447 163.293 57.51C163.75 58.2753 163.979 59.1387 163.979 60.1C163.979 61.0613 163.75 61.9247 163.293 62.69C162.835 63.4553 162.205 64.0573 161.403 64.496C160.6 64.9253 159.699 65.14 158.701 65.14ZM158.701 63.544C159.354 63.544 159.942 63.3993 160.465 63.11C160.987 62.8113 161.398 62.4007 161.697 61.878C161.995 61.346 162.145 60.7533 162.145 60.1C162.145 59.4467 161.995 58.8587 161.697 58.336C161.398 57.804 160.987 57.3933 160.465 57.104C159.942 56.8053 159.354 56.656 158.701 56.656C158.047 56.656 157.459 56.8053 156.937 57.104C156.414 57.3933 156.003 57.804 155.705 58.336C155.406 58.8587 155.257 59.4467 155.257 60.1C155.257 60.7533 155.406 61.346 155.705 61.878C156.003 62.4007 156.414 62.8113 156.937 63.11C157.459 63.3993 158.047 63.544 158.701 63.544ZM166.285 55.2H173.915V56.698H168.077V59.106H170.975C172.151 59.106 173.042 59.3533 173.649 59.848C174.265 60.3333 174.573 61.038 174.573 61.962C174.573 62.9327 174.237 63.684 173.565 64.216C172.893 64.7387 171.936 65 170.695 65H166.285V55.2ZM170.597 63.6C171.297 63.6 171.829 63.4647 172.193 63.194C172.557 62.9233 172.739 62.5313 172.739 62.018C172.739 61.01 172.025 60.506 170.597 60.506H168.077V63.6H170.597ZM182.528 58.518C183.704 58.518 184.605 58.784 185.23 59.316C185.865 59.8387 186.182 60.618 186.182 61.654C186.182 62.746 185.837 63.5767 185.146 64.146C184.465 64.7153 183.49 65 182.22 65H178.02V56.74H175.15V55.2H179.812V58.518H182.528ZM182.15 63.6C182.86 63.6 183.401 63.4367 183.774 63.11C184.157 62.7833 184.348 62.3073 184.348 61.682C184.348 60.4967 183.616 59.904 182.15 59.904H179.812V63.6H182.15ZM195.659 63.474V65H188.309V55.2H195.463V56.726H190.129V59.274H194.861V60.772H190.129V63.474H195.659ZM201.58 60.87H199.76V65H197.968V55.2H199.76V59.302H201.636L204.45 55.2H206.382L203.036 59.946L206.508 65H204.45L201.58 60.87ZM215.04 56.74H211.792V65H209.986V56.74H206.752V55.2H215.04V56.74ZM221.289 65.14C220.29 65.14 219.39 64.9253 218.587 64.496C217.784 64.0573 217.154 63.4553 216.697 62.69C216.24 61.9153 216.011 61.052 216.011 60.1C216.011 59.148 216.24 58.2893 216.697 57.524C217.154 56.7493 217.784 56.1473 218.587 55.718C219.39 55.2793 220.29 55.06 221.289 55.06C222.288 55.06 223.188 55.2793 223.991 55.718C224.794 56.1473 225.424 56.7447 225.881 57.51C226.338 58.2753 226.567 59.1387 226.567 60.1C226.567 61.0613 226.338 61.9247 225.881 62.69C225.424 63.4553 224.794 64.0573 223.991 64.496C223.188 64.9253 222.288 65.14 221.289 65.14ZM221.289 63.544C221.942 63.544 222.53 63.3993 223.053 63.11C223.576 62.8113 223.986 62.4007 224.285 61.878C224.584 61.346 224.733 60.7533 224.733 60.1C224.733 59.4467 224.584 58.8587 224.285 58.336C223.986 57.804 223.576 57.3933 223.053 57.104C222.53 56.8053 221.942 56.656 221.289 56.656C220.636 56.656 220.048 56.8053 219.525 57.104C219.002 57.3933 218.592 57.804 218.293 58.336C217.994 58.8587 217.845 59.4467 217.845 60.1C217.845 60.7533 217.994 61.346 218.293 61.878C218.592 62.4007 219.002 62.8113 219.525 63.11C220.048 63.3993 220.636 63.544 221.289 63.544ZM235.313 59.904C235.938 60.072 236.414 60.3613 236.741 60.772C237.068 61.1733 237.231 61.6773 237.231 62.284C237.231 63.1427 236.914 63.81 236.279 64.286C235.644 64.762 234.725 65 233.521 65H228.873V55.2H233.255C234.356 55.2 235.215 55.4193 235.831 55.858C236.447 56.2967 236.755 56.9173 236.755 57.72C236.755 58.2333 236.629 58.6767 236.377 59.05C236.134 59.4233 235.78 59.708 235.313 59.904ZM230.665 59.386H233.101C233.689 59.386 234.137 59.2693 234.445 59.036C234.753 58.8027 234.907 58.4573 234.907 58C234.907 57.5427 234.753 57.1973 234.445 56.964C234.137 56.7213 233.689 56.6 233.101 56.6H230.665V59.386ZM233.465 63.6C234.753 63.6 235.397 63.1147 235.397 62.144C235.397 61.192 234.753 60.716 233.465 60.716H230.665V63.6H233.465Z" fill="white"/>
<path d="M282.678 40.3664L265 58.0439L266.921 59.9654L284.599 42.2879L282.678 40.3664Z" fill="white"/>
<path d="M285.024 49.4565H282.307V42.7174H275.568V40H285.024V49.4565Z" fill="white"/>
<defs>
<filter id="filter0_i_1_3363" x="0" y="0" width="335" height="100" filterUnits="userSpaceOnUse" color-interpolation-filters="sRGB">
<feFlood flood-opacity="0" result="BackgroundImageFix"/>
<feBlend mode="normal" in="SourceGraphic" in2="BackgroundImageFix" result="shape"/>
<feColorMatrix in="SourceAlpha" type="matrix" values="0 0 0 0 0 0 0 0 0 0 0 0 0 0 0 0 0 0 127 0" result="hardAlpha"/>
<feOffset/>
<feGaussianBlur stdDeviation="11"/>
<feComposite in2="hardAlpha" operator="arithmetic" k2="-1" k3="1"/>
<feColorMatrix type="matrix" values="0 0 0 0 1 0 0 0 0 1 0 0 0 0 1 0 0 0 0.25 0"/>
<feBlend mode="normal" in2="shape" result="effect1_innerShadow_1_3363"/>
</filter>
</defs>
</svg>
