<svg width="375" height="100" viewBox="0 0 375 100" fill="none" xmlns="http://www.w3.org/2000/svg">
<g filter="url(#filter0_i_1_3344)">
<rect width="375" height="100" rx="50" fill="#12C868"/>
</g>
<path d="M62.7469 33.2C63.5963 33.2 64.3336 33.34 64.9589 33.62C65.5936 33.9 66.0789 34.3013 66.4149 34.824C66.7509 35.3467 66.9189 35.9673 66.9189 36.686C66.9189 37.3953 66.7509 38.016 66.4149 38.548C66.0789 39.0707 65.5936 39.472 64.9589 39.752C64.3336 40.032 63.5963 40.172 62.7469 40.172H60.5349V43H58.7149V33.2H62.7469ZM62.6629 38.632C63.4563 38.632 64.0583 38.464 64.4689 38.128C64.8796 37.792 65.0849 37.3113 65.0849 36.686C65.0849 36.0607 64.8796 35.58 64.4689 35.244C64.0583 34.908 63.4563 34.74 62.6629 34.74H60.5349V38.632H62.6629ZM74.9245 40.732H70.0245L69.0585 43H67.1825L71.5925 33.2H73.3845L77.8085 43H75.9045L74.9245 40.732ZM74.3225 39.304L72.4745 35.02L70.6405 39.304H74.3225ZM83.9626 43.14C82.9733 43.14 82.0773 42.9253 81.2746 42.496C80.4813 42.0573 79.8559 41.4553 79.3986 40.69C78.9506 39.9247 78.7266 39.0613 78.7266 38.1C78.7266 37.1387 78.9553 36.2753 79.4126 35.51C79.8699 34.7447 80.4953 34.1473 81.2886 33.718C82.0913 33.2793 82.9873 33.06 83.9766 33.06C84.7793 33.06 85.5119 33.2 86.1746 33.48C86.8373 33.76 87.3973 34.166 87.8546 34.698L86.6786 35.804C85.9693 35.0387 85.0966 34.656 84.0606 34.656C83.3886 34.656 82.7866 34.8053 82.2546 35.104C81.7226 35.3933 81.3073 35.7993 81.0086 36.322C80.7099 36.8447 80.5606 37.4373 80.5606 38.1C80.5606 38.7627 80.7099 39.3553 81.0086 39.878C81.3073 40.4007 81.7226 40.8113 82.2546 41.11C82.7866 41.3993 83.3886 41.544 84.0606 41.544C85.0966 41.544 85.9693 41.1567 86.6786 40.382L87.8546 41.502C87.3973 42.034 86.8326 42.44 86.1606 42.72C85.4979 43 84.7653 43.14 83.9626 43.14ZM94.1274 43.14C93.138 43.14 92.242 42.9253 91.4394 42.496C90.646 42.0573 90.0207 41.4553 89.5634 40.69C89.1154 39.9247 88.8914 39.0613 88.8914 38.1C88.8914 37.1387 89.12 36.2753 89.5774 35.51C90.0347 34.7447 90.66 34.1473 91.4534 33.718C92.256 33.2793 93.152 33.06 94.1414 33.06C94.944 33.06 95.6767 33.2 96.3394 33.48C97.002 33.76 97.562 34.166 98.0194 34.698L96.8434 35.804C96.134 35.0387 95.2614 34.656 94.2254 34.656C93.5534 34.656 92.9514 34.8053 92.4194 35.104C91.8874 35.3933 91.472 35.7993 91.1734 36.322C90.8747 36.8447 90.7254 37.4373 90.7254 38.1C90.7254 38.7627 90.8747 39.3553 91.1734 39.878C91.472 40.4007 91.8874 40.8113 92.4194 41.11C92.9514 41.3993 93.5534 41.544 94.2254 41.544C95.2614 41.544 96.134 41.1567 96.8434 40.382L98.0194 41.502C97.562 42.034 96.9974 42.44 96.3254 42.72C95.6627 43 94.93 43.14 94.1274 43.14ZM107.538 33.2V43H105.732V39.304C104.808 39.6493 103.93 39.822 103.1 39.822C101.849 39.822 100.883 39.5233 100.202 38.926C99.5295 38.3193 99.1935 37.4513 99.1935 36.322V33.2H101V36.126C101 36.8167 101.2 37.344 101.602 37.708C102.003 38.072 102.577 38.254 103.324 38.254C104.173 38.254 104.976 38.0813 105.732 37.736V33.2H107.538ZM110.578 33.2H112.37V40.158L117.634 33.2H119.328V43H117.536V36.056L112.272 43H110.578V33.2ZM129.468 34.74H126.22V43H124.414V34.74H121.18V33.2H129.468V34.74ZM137.321 40.732H132.421L131.455 43H129.579L133.989 33.2H135.781L140.205 43H138.301L137.321 40.732ZM136.719 39.304L134.871 35.02L133.037 39.304H136.719ZM148.608 34.74H145.36V43H143.554V34.74H140.32V33.2H148.608V34.74ZM154.98 36.518C156.156 36.518 157.056 36.784 157.682 37.316C158.316 37.8387 158.634 38.618 158.634 39.654C158.634 40.7367 158.288 41.5673 157.598 42.146C156.907 42.7153 155.936 43 154.686 43H150.472V33.2H152.264V36.518H154.98ZM154.602 41.6C155.311 41.6 155.857 41.4367 156.24 41.11C156.622 40.7833 156.814 40.3073 156.814 39.682C156.814 38.4967 156.076 37.904 154.602 37.904H152.264V41.6H154.602ZM169.43 43.14C168.441 43.14 167.545 42.9253 166.742 42.496C165.949 42.0573 165.323 41.4553 164.866 40.69C164.418 39.9247 164.194 39.0613 164.194 38.1C164.194 37.1387 164.423 36.2753 164.88 35.51C165.337 34.7447 165.963 34.1473 166.756 33.718C167.559 33.2793 168.455 33.06 169.444 33.06C170.247 33.06 170.979 33.2 171.642 33.48C172.305 33.76 172.865 34.166 173.322 34.698L172.146 35.804C171.437 35.0387 170.564 34.656 169.528 34.656C168.856 34.656 168.254 34.8053 167.722 35.104C167.19 35.3933 166.775 35.7993 166.476 36.322C166.177 36.8447 166.028 37.4373 166.028 38.1C166.028 38.7627 166.177 39.3553 166.476 39.878C166.775 40.4007 167.19 40.8113 167.722 41.11C168.254 41.3993 168.856 41.544 169.528 41.544C170.564 41.544 171.437 41.1567 172.146 40.382L173.322 41.502C172.865 42.034 172.3 42.44 171.628 42.72C170.965 43 170.233 43.14 169.43 43.14ZM182.294 34.74H179.046V43H177.24V34.74H174.006V33.2H182.294V34.74ZM188.543 43.14C187.545 43.14 186.644 42.9253 185.841 42.496C185.039 42.0573 184.409 41.4553 183.951 40.69C183.494 39.9153 183.265 39.052 183.265 38.1C183.265 37.148 183.494 36.2893 183.951 35.524C184.409 34.7493 185.039 34.1473 185.841 33.718C186.644 33.2793 187.545 33.06 188.543 33.06C189.542 33.06 190.443 33.2793 191.245 33.718C192.048 34.1473 192.678 34.7447 193.135 35.51C193.593 36.2753 193.821 37.1387 193.821 38.1C193.821 39.0613 193.593 39.9247 193.135 40.69C192.678 41.4553 192.048 42.0573 191.245 42.496C190.443 42.9253 189.542 43.14 188.543 43.14ZM188.543 41.544C189.197 41.544 189.785 41.3993 190.307 41.11C190.83 40.8113 191.241 40.4007 191.539 39.878C191.838 39.346 191.987 38.7533 191.987 38.1C191.987 37.4467 191.838 36.8587 191.539 36.336C191.241 35.804 190.83 35.3933 190.307 35.104C189.785 34.8053 189.197 34.656 188.543 34.656C187.89 34.656 187.302 34.8053 186.779 35.104C186.257 35.3933 185.846 35.804 185.547 36.336C185.249 36.8587 185.099 37.4467 185.099 38.1C185.099 38.7533 185.249 39.346 185.547 39.878C185.846 40.4007 186.257 40.8113 186.779 41.11C187.302 41.3993 187.89 41.544 188.543 41.544ZM196.127 33.2H197.919V40.158L203.183 33.2H204.877V43H203.085V36.056L197.821 43H196.127V33.2ZM216.907 43L216.893 36.504L213.673 41.88H212.861L209.641 36.588V43H207.919V33.2H209.417L213.295 39.682L217.131 33.2H218.615L218.643 43H216.907ZM226.202 43.14C225.203 43.14 224.302 42.9253 223.5 42.496C222.697 42.0573 222.067 41.4553 221.61 40.69C221.152 39.9153 220.924 39.052 220.924 38.1C220.924 37.148 221.152 36.2893 221.61 35.524C222.067 34.7493 222.697 34.1473 223.5 33.718C224.302 33.2793 225.203 33.06 226.202 33.06C227.2 33.06 228.101 33.2793 228.904 33.718C229.706 34.1473 230.336 34.7447 230.794 35.51C231.251 36.2753 231.48 37.1387 231.48 38.1C231.48 39.0613 231.251 39.9247 230.794 40.69C230.336 41.4553 229.706 42.0573 228.904 42.496C228.101 42.9253 227.2 43.14 226.202 43.14ZM226.202 41.544C226.855 41.544 227.443 41.3993 227.966 41.11C228.488 40.8113 228.899 40.4007 229.198 39.878C229.496 39.346 229.646 38.7533 229.646 38.1C229.646 37.4467 229.496 36.8587 229.198 36.336C228.899 35.804 228.488 35.3933 227.966 35.104C227.443 34.8053 226.855 34.656 226.202 34.656C225.548 34.656 224.96 34.8053 224.438 35.104C223.915 35.3933 223.504 35.804 223.206 36.336C222.907 36.8587 222.758 37.4467 222.758 38.1C222.758 38.7533 222.907 39.346 223.206 39.878C223.504 40.4007 223.915 40.8113 224.438 41.11C224.96 41.3993 225.548 41.544 226.202 41.544ZM238.28 43.14C237.29 43.14 236.394 42.9253 235.592 42.496C234.798 42.0573 234.173 41.4553 233.716 40.69C233.268 39.9247 233.044 39.0613 233.044 38.1C233.044 37.1387 233.272 36.2753 233.73 35.51C234.187 34.7447 234.812 34.1473 235.606 33.718C236.408 33.2793 237.304 33.06 238.294 33.06C239.096 33.06 239.829 33.2 240.492 33.48C241.154 33.76 241.714 34.166 242.172 34.698L240.996 35.804C240.286 35.0387 239.414 34.656 238.378 34.656C237.706 34.656 237.104 34.8053 236.572 35.104C236.04 35.3933 235.624 35.7993 235.326 36.322C235.027 36.8447 234.878 37.4373 234.878 38.1C234.878 38.7627 235.027 39.3553 235.326 39.878C235.624 40.4007 236.04 40.8113 236.572 41.11C237.104 41.3993 237.706 41.544 238.378 41.544C239.414 41.544 240.286 41.1567 240.996 40.382L242.172 41.502C241.714 42.034 241.15 42.44 240.478 42.72C239.815 43 239.082 43.14 238.28 43.14ZM251.144 34.74H247.896V43H246.09V34.74H242.856V33.2H251.144V34.74ZM257.516 36.518C258.692 36.518 259.593 36.784 260.218 37.316C260.853 37.8387 261.17 38.618 261.17 39.654C261.17 40.7367 260.825 41.5673 260.134 42.146C259.443 42.7153 258.473 43 257.222 43H253.008V33.2H254.8V36.518H257.516ZM257.138 41.6C257.847 41.6 258.393 41.4367 258.776 41.11C259.159 40.7833 259.35 40.3073 259.35 39.682C259.35 38.4967 258.613 37.904 257.138 37.904H254.8V41.6H257.138ZM63.4992 65L63.4852 58.504L60.2652 63.88H59.4532L56.2332 58.588V65H54.5112V55.2H56.0092L59.8872 61.682L63.7232 55.2H65.2072L65.2352 65H63.4992ZM74.7536 62.732H69.8536L68.8876 65H67.0116L71.4216 55.2H73.2136L77.6376 65H75.7336L74.7536 62.732ZM74.1516 61.304L72.3036 57.02L70.4696 61.304H74.1516ZM86.0402 56.74H82.7922V65H80.9862V56.74H77.7522V55.2H86.0402V56.74ZM95.2399 63.474V65H87.8899V55.2H95.0439V56.726H89.7099V59.274H94.4419V60.772H89.7099V63.474H95.2399ZM101.581 55.2C102.43 55.2 103.167 55.34 103.793 55.62C104.427 55.9 104.913 56.3013 105.249 56.824C105.585 57.3467 105.753 57.9673 105.753 58.686C105.753 59.3953 105.585 60.016 105.249 60.548C104.913 61.0707 104.427 61.472 103.793 61.752C103.167 62.032 102.43 62.172 101.581 62.172H99.3688V65H97.5488V55.2H101.581ZM101.497 60.632C102.29 60.632 102.892 60.464 103.303 60.128C103.713 59.792 103.919 59.3113 103.919 58.686C103.919 58.0607 103.713 57.58 103.303 57.244C102.892 56.908 102.29 56.74 101.497 56.74H99.3688V60.632H101.497ZM107.769 55.2H109.561V62.158L114.825 55.2H116.519V65H114.727V58.056L109.463 65H107.769V55.2ZM126.042 62.732H121.142L120.176 65H118.3L122.71 55.2H124.502L128.926 65H127.022L126.042 62.732ZM125.44 61.304L123.592 57.02L121.758 61.304H125.44ZM139.149 55.2V65H137.357V56.74H133.493L133.409 59.19C133.363 60.562 133.251 61.6773 133.073 62.536C132.896 63.3853 132.611 64.034 132.219 64.482C131.827 64.9207 131.286 65.14 130.595 65.14C130.353 65.14 130.021 65.0933 129.601 65L129.727 63.418C129.849 63.4553 129.989 63.474 130.147 63.474C130.717 63.474 131.118 63.138 131.351 62.466C131.594 61.7847 131.743 60.716 131.799 59.26L131.939 55.2H139.149ZM146.722 65.14C145.724 65.14 144.823 64.9253 144.02 64.496C143.218 64.0573 142.588 63.4553 142.13 62.69C141.673 61.9153 141.444 61.052 141.444 60.1C141.444 59.148 141.673 58.2893 142.13 57.524C142.588 56.7493 143.218 56.1473 144.02 55.718C144.823 55.2793 145.724 55.06 146.722 55.06C147.721 55.06 148.622 55.2793 149.424 55.718C150.227 56.1473 150.857 56.7447 151.314 57.51C151.772 58.2753 152 59.1387 152 60.1C152 61.0613 151.772 61.9247 151.314 62.69C150.857 63.4553 150.227 64.0573 149.424 64.496C148.622 64.9253 147.721 65.14 146.722 65.14ZM146.722 63.544C147.376 63.544 147.964 63.3993 148.486 63.11C149.009 62.8113 149.42 62.4007 149.718 61.878C150.017 61.346 150.166 60.7533 150.166 60.1C150.166 59.4467 150.017 58.8587 149.718 58.336C149.42 57.804 149.009 57.3933 148.486 57.104C147.964 56.8053 147.376 56.656 146.722 56.656C146.069 56.656 145.481 56.8053 144.958 57.104C144.436 57.3933 144.025 57.804 143.726 58.336C143.428 58.8587 143.278 59.4467 143.278 60.1C143.278 60.7533 143.428 61.346 143.726 61.878C144.025 62.4007 144.436 62.8113 144.958 63.11C145.481 63.3993 146.069 63.544 146.722 63.544ZM160.747 59.904C161.372 60.072 161.848 60.3613 162.175 60.772C162.501 61.1733 162.665 61.6773 162.665 62.284C162.665 63.1427 162.347 63.81 161.713 64.286C161.078 64.762 160.159 65 158.955 65H154.307V55.2H158.689C159.79 55.2 160.649 55.4193 161.265 55.858C161.881 56.2967 162.189 56.9173 162.189 57.72C162.189 58.2333 162.063 58.6767 161.811 59.05C161.568 59.4233 161.213 59.708 160.747 59.904ZM156.099 59.386H158.535C159.123 59.386 159.571 59.2693 159.879 59.036C160.187 58.8027 160.341 58.4573 160.341 58C160.341 57.5427 160.187 57.1973 159.879 56.964C159.571 56.7213 159.123 56.6 158.535 56.6H156.099V59.386ZM158.899 63.6C160.187 63.6 160.831 63.1147 160.831 62.144C160.831 61.192 160.187 60.716 158.899 60.716H156.099V63.6H158.899ZM169.181 55.2H170.973V62.158L176.237 55.2H177.931V65H176.139V58.056L170.875 65H169.181V55.2ZM194.11 65L194.096 58.504L190.876 63.88H190.064L186.844 58.588V65H185.122V55.2H186.62L190.498 61.682L194.334 55.2H195.818L195.846 65H194.11ZM203.404 65.14C202.406 65.14 201.505 64.9253 200.702 64.496C199.9 64.0573 199.27 63.4553 198.812 62.69C198.355 61.9153 198.126 61.052 198.126 60.1C198.126 59.148 198.355 58.2893 198.812 57.524C199.27 56.7493 199.9 56.1473 200.702 55.718C201.505 55.2793 202.406 55.06 203.404 55.06C204.403 55.06 205.304 55.2793 206.106 55.718C206.909 56.1473 207.539 56.7447 207.996 57.51C208.454 58.2753 208.682 59.1387 208.682 60.1C208.682 61.0613 208.454 61.9247 207.996 62.69C207.539 63.4553 206.909 64.0573 206.106 64.496C205.304 64.9253 204.403 65.14 203.404 65.14ZM203.404 63.544C204.058 63.544 204.646 63.3993 205.168 63.11C205.691 62.8113 206.102 62.4007 206.4 61.878C206.699 61.346 206.848 60.7533 206.848 60.1C206.848 59.4467 206.699 58.8587 206.4 58.336C206.102 57.804 205.691 57.3933 205.168 57.104C204.646 56.8053 204.058 56.656 203.404 56.656C202.751 56.656 202.163 56.8053 201.64 57.104C201.118 57.3933 200.707 57.804 200.408 58.336C200.11 58.8587 199.96 59.4467 199.96 60.1C199.96 60.7533 200.11 61.346 200.408 61.878C200.707 62.4007 201.118 62.8113 201.64 63.11C202.163 63.3993 202.751 63.544 203.404 63.544ZM219.682 55.2V65H217.862V60.8H212.794V65H210.974V55.2H212.794V59.246H217.862V55.2H219.682ZM229.824 56.74H226.576V65H224.77V56.74H221.536V55.2H229.824V56.74ZM237.677 62.732H232.777L231.811 65H229.935L234.345 55.2H236.137L240.561 65H238.657L237.677 62.732ZM237.075 61.304L235.227 57.02L233.393 61.304H237.075ZM250.42 60.87H248.74V65H246.962V60.87H245.282L242.804 65H240.704L243.784 59.89L240.914 55.2H242.846L245.24 59.302H246.962V55.2H248.74V59.302H250.434L252.842 55.2H254.774L251.918 59.904L254.984 65H252.884L250.42 60.87ZM262.86 62.732H257.96L256.994 65H255.118L259.528 55.2H261.32L265.744 65H263.84L262.86 62.732ZM262.258 61.304L260.41 57.02L258.576 61.304H262.258Z" fill="white"/>
<path d="M314.678 40.3664L297 58.0439L298.921 59.9654L316.599 42.2879L314.678 40.3664Z" fill="white"/>
<path d="M317.024 49.4565H314.307V42.7174H307.568V40H317.024V49.4565Z" fill="white"/>
<defs>
<filter id="filter0_i_1_3344" x="0" y="0" width="375" height="100" filterUnits="userSpaceOnUse" color-interpolation-filters="sRGB">
<feFlood flood-opacity="0" result="BackgroundImageFix"/>
<feBlend mode="normal" in="SourceGraphic" in2="BackgroundImageFix" result="shape"/>
<feColorMatrix in="SourceAlpha" type="matrix" values="0 0 0 0 0 0 0 0 0 0 0 0 0 0 0 0 0 0 127 0" result="hardAlpha"/>
<feOffset/>
<feGaussianBlur stdDeviation="11"/>
<feComposite in2="hardAlpha" operator="arithmetic" k2="-1" k3="1"/>
<feColorMatrix type="matrix" values="0 0 0 0 1 0 0 0 0 1 0 0 0 0 1 0 0 0 0.25 0"/>
<feBlend mode="normal" in2="shape" result="effect1_innerShadow_1_3344"/>
</filter>
</defs>
</svg>
