<svg width="18" height="18" viewBox="0 0 18 18" fill="none" xmlns="http://www.w3.org/2000/svg">
<rect width="18" height="17.6456" rx="4" fill="#F38120"/>
<path d="M12.4731 6.90759L11.8387 6.29889C11.7531 6.21682 11.6462 6.17578 11.525 6.17578C11.4038 6.17578 11.2969 6.21682 11.2113 6.29889L8.16024 9.22614L6.79866 7.91298C6.71311 7.83091 6.60618 7.78987 6.48499 7.78987C6.3638 7.78987 6.25687 7.83091 6.17133 7.91298L5.53687 8.52169C5.4442 8.60376 5.40143 8.70635 5.40143 8.82262C5.40143 8.93889 5.4442 9.04148 5.52975 9.12355L7.21212 10.7376L7.84658 11.3464C7.93212 11.4284 8.03905 11.4695 8.16024 11.4695C8.28143 11.4695 8.38836 11.4284 8.4739 11.3464L9.10836 10.7376L12.4731 7.50946C12.5587 7.42739 12.6014 7.3248 12.6014 7.20853C12.6014 7.09226 12.5587 6.98967 12.4731 6.90759Z" fill="white"/>
</svg>
